<?xml version="1.0" encoding="UTF-8" standalone="no"?>
<!-- Created with Inkscape (http://www.inkscape.org/) -->

<svg
   xmlns:dc="http://purl.org/dc/elements/1.1/"
   xmlns:cc="http://creativecommons.org/ns#"
   xmlns:rdf="http://www.w3.org/1999/02/22-rdf-syntax-ns#"
   xmlns:svg="http://www.w3.org/2000/svg"
   xmlns="http://www.w3.org/2000/svg"
   xmlns:xlink="http://www.w3.org/1999/xlink"
   xmlns:sodipodi="http://sodipodi.sourceforge.net/DTD/sodipodi-0.dtd"
   xmlns:inkscape="http://www.inkscape.org/namespaces/inkscape"
   width="64px"
   height="64px"
   id="svg3272"
   sodipodi:version="0.32"
   inkscape:version="0.48.2 r9819"
   sodipodi:docname="iphone-svg-icon.svg"
   inkscape:output_extension="org.inkscape.output.svg.inkscape"
   inkscape:export-filename="/Users/seb/Desktop/Icon.png"
   inkscape:export-xdpi="80.15625"
   inkscape:export-ydpi="80.15625"
   version="1.1">
  <defs
     id="defs3274">
    <linearGradient
       id="linearGradient3210">
      <stop
         style="stop-color:#dcdcdc;stop-opacity:1;"
         offset="0"
         id="stop3212" />
      <stop
         style="stop-color:#1a1a1a;stop-opacity:1;"
         offset="1"
         id="stop3214" />
    </linearGradient>
    <linearGradient
       inkscape:collect="always"
       xlink:href="#linearGradient3210"
       id="linearGradient3216"
       x1="390"
       y1="6"
       x2="390"
       y2="246"
       gradientUnits="userSpaceOnUse"
       gradientTransform="translate(-305.59091,-57.247727)" />
    <linearGradient
       inkscape:collect="always"
       id="linearGradient3200">
      <stop
         style="stop-color:#ffffff;stop-opacity:1;"
         offset="0"
         id="stop3202" />
      <stop
         style="stop-color:#ffffff;stop-opacity:0;"
         offset="1"
         id="stop3204" />
    </linearGradient>
    <linearGradient
       inkscape:collect="always"
       xlink:href="#linearGradient3200"
       id="linearGradient3206"
       x1="385"
       y1="6"
       x2="385"
       y2="91"
       gradientUnits="userSpaceOnUse"
       gradientTransform="translate(-305.59091,-57.247727)" />
    <linearGradient
       id="linearGradient3170">
      <stop
         style="stop-color:#ffffff;stop-opacity:0.23529412;"
         offset="0"
         id="stop3172" />
      <stop
         style="stop-color:#ffffff;stop-opacity:0.01357466"
         offset="1"
         id="stop3174" />
    </linearGradient>
    <linearGradient
       inkscape:collect="always"
       xlink:href="#linearGradient3170"
       id="linearGradient3176"
       x1="365"
       y1="156"
       x2="365"
       y2="1"
       gradientUnits="userSpaceOnUse"
       gradientTransform="translate(-305.59091,-57.247727)" />
    <inkscape:perspective
       sodipodi:type="inkscape:persp3d"
       inkscape:vp_x="0 : 32 : 1"
       inkscape:vp_y="0 : 1000 : 0"
       inkscape:vp_z="64 : 32 : 1"
       inkscape:persp3d-origin="32 : 21.333333 : 1"
       id="perspective3280" />
    <linearGradient
       inkscape:collect="always"
       xlink:href="#linearGradient3210"
       id="linearGradient3320"
       gradientUnits="userSpaceOnUse"
       gradientTransform="translate(-305.59091,-57.247727)"
       x1="390"
       y1="6"
       x2="390"
       y2="246" />
    <linearGradient
       inkscape:collect="always"
       xlink:href="#linearGradient3170"
       id="linearGradient3322"
       gradientUnits="userSpaceOnUse"
       gradientTransform="translate(-305.59091,-57.247727)"
       x1="365"
       y1="156"
       x2="365"
       y2="1" />
    <linearGradient
       inkscape:collect="always"
       xlink:href="#linearGradient3200"
       id="linearGradient3324"
       gradientUnits="userSpaceOnUse"
       gradientTransform="translate(-305.59091,-57.247727)"
       x1="385"
       y1="6"
       x2="385"
       y2="91" />
  </defs>
  <sodipodi:namedview
     id="base"
     pagecolor="#ffffff"
     bordercolor="#666666"
     borderopacity="1.0"
     inkscape:pageopacity="0.0"
     inkscape:pageshadow="2"
     inkscape:zoom="3.8890873"
     inkscape:cx="15.390884"
     inkscape:cy="40.176539"
     inkscape:current-layer="layer1"
     showgrid="true"
     inkscape:document-units="px"
     inkscape:grid-bbox="true"
     inkscape:window-width="1176"
     inkscape:window-height="941"
     inkscape:window-x="1435"
     inkscape:window-y="19"
     inkscape:window-maximized="0" />
  <metadata
     id="metadata3277">
    <rdf:RDF>
      <cc:Work
         rdf:about="">
        <dc:format>image/svg+xml</dc:format>
        <dc:type
           rdf:resource="http://purl.org/dc/dcmitype/StillImage" />
        <dc:title></dc:title>
      </cc:Work>
    </rdf:RDF>
  </metadata>
  <g
     id="layer1"
     inkscape:label="bg"
     inkscape:groupmode="layer"
     style="display:inline">
    <g
       id="g3306"
       transform="matrix(0.2530578,0,0,0.2530578,15.068133,14.101912)">
      <rect
         ry="34.945"
         rx="34.945"
         y="-46.247726"
         x="-50.590908"
         height="235"
         width="235"
         id="rect2388"
         style="fill:url(#linearGradient3320);fill-opacity:1;fill-rule:evenodd;stroke:#fa5252;stroke-width:0;stroke-linecap:butt;stroke-linejoin:miter;stroke-miterlimit:4;stroke-opacity:1;stroke-dasharray:none;stroke-dashoffset:0;marker:none;visibility:visible;display:inline;overflow:visible;enable-background:accumulate" />
    </g>
    <g
       inkscape:groupmode="layer"
       id="layer2"
       inkscape:label="tank"
       style="display:inline">
      <g
         transform="matrix(0.41498408,0,0,0.41498408,5.5026464,-378.03408)"
         id="layer1-0"
         inkscape:label="Layer 1">
        <g
           transform="matrix(1.2611457,0,0,1.2611457,-11.044427,-262.10813)"
           id="g3012">
          <path
             inkscape:connector-curvature="0"
             id="path6548"
             d="M 77.106528,973.54737 81.95762,984.88003 71.886805,996.59793 61.81599,1008.3158 56.964898,996.9832 52.113805,985.65057 62.184621,973.93264 72.255436,962.21474 77.106528,973.54737 z"
             style="fill:#fefefe" />
          <path
             inkscape:connector-curvature="0"
             id="path6546"
             d="M 101.2026,958.78343 103.60954,962.19393 96.106445,967.48919 88.603353,972.78445 91.010289,976.19494 93.417226,979.60544 97.509821,976.71711 101.60242,973.82879 105.45352,979.28559 109.30461,984.74238 107.25832,986.18654 105.21202,987.6307 106.65618,989.677 108.10034,991.7233 75.633625,1014.6365 43.166911,1037.5497 38.331288,1034.1753 C 35.671697,1032.3195 32.754644,1029.751 31.848949,1028.4677 L 30.202233,1026.1344 31.694354,1023.905 33.186475,1021.6756 27.134453,1013.1002 21.082432,1004.5248 18.481957,1005.1838 15.881482,1005.8427 14.234765,1003.5094 C 13.329071,1002.2261 11.886444,998.61707 11.028926,995.48939 L 9.4698047,989.8027 41.297235,967.3407 73.124666,944.87869 75.354066,946.37081 77.583466,947.86293 79.483809,946.52178 81.384153,945.18062 85.235251,950.63742 89.086349,956.09421 84.993753,958.98253 80.901157,961.87086 82.345319,963.91715 83.789481,965.96345 91.292573,960.66819 98.795665,955.37293 101.2026,958.78343 z M 77.140042,977.59622 75.734163,977.35369 74.449319,979.33383 73.164476,981.31398 75.8552,979.57636 78.545921,977.83874 77.140042,977.59622 z"
             style="fill:#cecece" />
          <path
             inkscape:connector-curvature="0"
             id="path6544"
             d="M 101.2026,958.78343 103.60954,962.19393 96.106445,967.48919 88.603353,972.78445 91.010289,976.19494 93.417226,979.60544 97.509821,976.71711 101.60242,973.82879 105.45352,979.28559 109.30461,984.74238 107.25832,986.18654 105.21202,987.6307 106.65618,989.677 108.10034,991.7233 75.633625,1014.6365 43.166911,1037.5497 38.331288,1034.1753 C 35.671697,1032.3195 32.754644,1029.751 31.848949,1028.4677 L 30.202233,1026.1344 31.694354,1023.905 33.186475,1021.6756 27.134453,1013.1002 21.082432,1004.5248 18.481957,1005.1838 15.881482,1005.8427 14.234765,1003.5094 C 13.329071,1002.2261 11.886444,998.61707 11.028926,995.48939 L 9.4698047,989.8027 41.297235,967.3407 73.124666,944.87869 75.354066,946.37081 77.583466,947.86293 79.483809,946.52178 81.384153,945.18062 85.235251,950.63742 89.086349,956.09421 84.993753,958.98253 80.901157,961.87086 82.345319,963.91715 83.789481,965.96345 91.292573,960.66819 98.795665,955.37293 101.2026,958.78343 z M 79.116975,975.99344 C 77.199299,976.85971 74.436797,978.80933 72.978081,980.32592 L 70.325871,983.08337 76.464765,978.75088 82.603659,974.4184 79.116975,975.99344 z M 72.234903,995.15979 C 70.328497,996.02014 67.253136,998.178 65.400768,999.95505 L 62.032824,1003.186 68.866959,998.39078 75.701094,993.59553 72.234903,995.15979 z"
             style="fill:#b7b7b7" />
          <path
             inkscape:connector-curvature="0"
             id="path6542"
             d="M 101.2026,958.78343 103.60954,962.19393 96.106445,967.48919 88.603353,972.78445 91.010289,976.19494 93.417226,979.60544 97.509821,976.71711 101.60242,973.82879 105.45352,979.28559 109.30461,984.74238 107.25832,986.18654 105.21202,987.6307 106.65618,989.677 108.10034,991.7233 75.633625,1014.6365 43.166911,1037.5497 38.331288,1034.1753 C 35.671697,1032.3195 32.754644,1029.751 31.848949,1028.4677 L 30.202233,1026.1344 31.694354,1023.905 33.186475,1021.6756 27.134453,1013.1002 21.082432,1004.5248 18.481957,1005.1838 15.881482,1005.8427 14.234765,1003.5094 C 13.329071,1002.2261 11.886444,998.61707 11.028926,995.48939 L 9.4698047,989.8027 41.297235,967.3407 73.124666,944.87869 75.354066,946.37081 77.583466,947.86293 79.483809,946.52178 81.384153,945.18062 85.235251,950.63742 89.086349,956.09421 84.993753,958.98253 80.901157,961.87086 82.345319,963.91715 83.789481,965.96345 91.292573,960.66819 98.795665,955.37293 101.2026,958.78343 z M 78.450841,976.44559 C 76.181248,977.58103 72.49349,980.17425 70.255825,982.20831 L 66.187341,985.90661 74.382358,980.14388 82.577375,974.38116 78.450841,976.44559 z M 74.111502,994.23894 C 73.176612,994.50692 69.948589,996.1227 66.938118,997.82955 L 61.464535,1000.9329 62.233984,1002.0232 63.003432,1003.1134 69.407367,998.43257 C 72.929532,995.85809 75.046392,993.97095 74.111502,994.23894 z"
             style="fill:#aeaeae" />
          <path
             inkscape:connector-curvature="0"
             id="path6540"
             d="M 101.2026,958.78343 103.60954,962.19393 96.106445,967.48919 88.603353,972.78445 91.010289,976.19494 93.417226,979.60544 97.509821,976.71711 101.60242,973.82879 105.45352,979.28559 109.30461,984.74238 107.25832,986.18654 105.21202,987.6307 106.65618,989.677 108.10034,991.7233 75.633625,1014.6365 43.166911,1037.5497 38.331288,1034.1753 C 35.671697,1032.3195 32.754644,1029.751 31.848949,1028.4677 L 30.202233,1026.1344 31.694354,1023.905 33.186475,1021.6756 27.134453,1013.1002 21.082432,1004.5248 18.481957,1005.1838 15.881482,1005.8427 14.234765,1003.5094 C 13.329071,1002.2261 11.886444,998.61707 11.028926,995.48939 L 9.4698047,989.8027 41.297235,967.3407 73.124666,944.87869 75.354066,946.37081 77.583466,947.86293 79.483809,946.52178 81.384153,945.18062 85.235251,950.63742 89.086349,956.09421 84.993753,958.98253 80.901157,961.87086 82.345319,963.91715 83.789481,965.96345 91.292573,960.66819 98.795665,955.37293 101.2026,958.78343 z M 80.538911,974.38853 C 78.583202,974.80275 74.036651,977.15643 70.435464,979.61894 L 63.887852,984.09624 64.850627,985.46044 65.813401,986.82464 74.954073,980.23003 84.094744,973.63542 80.538911,974.38853 z M 74.818615,994.03431 C 74.314078,993.98302 71.057239,995.44937 67.581194,997.29287 L 61.261112,1000.6447 62.132273,1001.8791 63.003432,1003.1134 69.369693,998.6205 C 72.871135,996.14938 75.32315,994.08559 74.818615,994.03431 z"
             style="fill:#898989" />
          <path
             inkscape:connector-curvature="0"
             id="path6538"
             d="M 101.2026,958.78343 103.60954,962.19393 96.106445,967.48919 88.603353,972.78445 91.010289,976.19494 93.417226,979.60544 97.509821,976.71711 101.60242,973.82879 105.45352,979.28559 109.30461,984.74238 107.25832,986.18654 105.21202,987.6307 106.65618,989.677 108.10034,991.7233 75.633625,1014.6365 43.166911,1037.5497 38.331288,1034.1753 C 35.671697,1032.3195 32.754644,1029.751 31.848949,1028.4677 L 30.202233,1026.1344 31.694354,1023.905 33.186475,1021.6756 27.134453,1013.1002 21.082432,1004.5248 18.481957,1005.1838 15.881482,1005.8427 14.234765,1003.5094 C 13.329071,1002.2261 11.886444,998.61707 11.028926,995.48939 L 9.4698047,989.8027 41.297235,967.3407 73.124666,944.87869 75.354066,946.37081 77.583466,947.86293 79.483809,946.52178 81.384153,945.18062 85.235251,950.63742 89.086349,956.09421 84.993753,958.98253 80.901157,961.87086 82.345319,963.91715 83.789481,965.96345 91.292573,960.66819 98.795665,955.37293 101.2026,958.78343 z M 83.226265,972.40483 C 81.293129,972.85103 75.895372,975.84465 71.231246,979.05733 L 62.75102,984.89855 60.949219,983.61557 59.147419,982.3326 61.524108,985.76444 63.900799,989.19628 75.320927,980.39492 86.741056,971.59356 83.226265,972.40483 z M 74.791651,991.58296 C 74.478114,991.53686 71.92494,992.80577 69.117932,994.40275 L 64.014282,997.30635 60.230985,996.28927 56.447688,995.2722 59.38451,999.43352 62.321333,1003.5948 68.573909,999.18212 C 72.012828,996.75513 74.946914,994.07131 75.094102,993.21809 75.241292,992.36487 75.105189,991.62906 74.791651,991.58296 z M 62.128877,1010.2431 59.077766,1011.756 56.234186,1009.5993 53.390604,1007.4425 52.948771,1010.0037 52.506939,1012.565 48.457816,1015.6597 44.408694,1018.7544 47.23634,1017.6934 50.063986,1016.6324 51.334547,1018.4327 52.605108,1020.2331 55.347373,1019.5382 C 56.85562,1019.156 59.451377,1017.8823 61.115721,1016.7077 L 64.141804,1014.5721 64.660896,1011.6511 65.179986,1008.7302 62.128877,1010.2431 z M 51.899448,996.64432 C 51.10516,995.51886 48.880661,993.41018 46.956119,991.95836 L 43.45695,989.3187 49.714985,998.18599 55.973019,1007.0533 54.658314,1002.872 C 53.935227,1000.5722 52.693737,997.76979 51.899448,996.64432 z"
             style="fill:#7d7d7d" />
          <path
             inkscape:connector-curvature="0"
             id="path6536"
             d="M 101.2026,958.78343 103.60954,962.19393 96.106445,967.48919 88.603353,972.78445 91.010289,976.19494 93.417226,979.60544 97.509821,976.71711 101.60242,973.82879 105.45352,979.28559 109.30461,984.74238 107.25832,986.18654 105.21202,987.6307 106.65618,989.677 108.10034,991.7233 75.633625,1014.6365 43.166911,1037.5497 38.331288,1034.1753 C 35.671697,1032.3195 32.754644,1029.751 31.848949,1028.4677 L 30.202233,1026.1344 31.694354,1023.905 33.186475,1021.6756 27.134453,1013.1002 21.082432,1004.5248 18.481957,1005.1838 15.881482,1005.8427 14.234765,1003.5094 C 13.329071,1002.2261 11.886444,998.61707 11.028926,995.48939 L 9.4698047,989.8027 41.297235,967.3407 73.124666,944.87869 75.354066,946.37081 77.583466,947.86293 79.483809,946.52178 81.384153,945.18062 85.235251,950.63742 89.086349,956.09421 84.993753,958.98253 80.901157,961.87086 82.345319,963.91715 83.789481,965.96345 91.292573,960.66819 98.795665,955.37293 101.2026,958.78343 z M 83.911116,971.92734 C 81.632444,972.68027 75.939237,975.90681 71.259547,979.09743 L 62.75102,984.89855 60.949219,983.61557 59.147419,982.3326 61.524184,985.76438 63.900951,989.19617 75.977553,979.87728 88.054156,970.55838 83.911116,971.92734 z M 74.791651,991.58296 C 74.478114,991.53686 71.92494,992.80577 69.117932,994.40275 L 64.014282,997.30635 60.230985,996.28927 56.447688,995.2722 59.38451,999.43352 62.321333,1003.5948 68.573909,999.18212 C 72.012828,996.75513 74.946914,994.07131 75.094102,993.21809 75.241292,992.36487 75.105189,991.62906 74.791651,991.58296 z M 62.128877,1010.2431 59.077766,1011.756 56.234186,1009.5993 53.390604,1007.4425 52.948771,1010.0037 52.506939,1012.565 48.457816,1015.6597 44.408694,1018.7544 47.23634,1017.6934 50.063986,1016.6324 51.334547,1018.4327 52.605108,1020.2331 55.347373,1019.5382 C 56.85562,1019.156 59.451377,1017.8823 61.115721,1016.7077 L 64.141804,1014.5721 64.660896,1011.6511 65.179986,1008.7302 62.128877,1010.2431 z M 51.899448,996.64432 C 51.10516,995.51886 48.880661,993.41018 46.956119,991.95836 L 43.45695,989.3187 49.714985,998.18599 55.973019,1007.0533 54.658314,1002.872 C 53.935227,1000.5722 52.693737,997.76979 51.899448,996.64432 z"
             style="fill:#7a7a7a" />
          <path
             inkscape:connector-curvature="0"
             id="path6534"
             d="M 101.2026,958.78343 103.60954,962.19393 96.106445,967.48919 88.603353,972.78445 91.010289,976.19494 93.417226,979.60544 97.509821,976.71711 101.60242,973.82879 105.45352,979.28559 109.30461,984.74238 107.25832,986.18654 105.21202,987.6307 106.65618,989.677 108.10034,991.7233 75.633625,1014.6365 43.166911,1037.5497 38.331288,1034.1753 C 35.671697,1032.3195 32.754644,1029.751 31.848949,1028.4677 L 30.202233,1026.1344 31.694354,1023.905 33.186475,1021.6756 27.134453,1013.1002 21.082432,1004.5248 18.481957,1005.1838 15.881482,1005.8427 14.234765,1003.5094 C 13.329071,1002.2261 11.886444,998.61707 11.028926,995.48939 L 9.4698047,989.8027 41.297235,967.3407 73.124666,944.87869 75.354066,946.37081 77.583466,947.86293 79.483809,946.52178 81.384153,945.18062 85.235251,950.63742 89.086349,956.09421 84.993753,958.98253 80.901157,961.87086 82.345319,963.91715 83.789481,965.96345 91.292573,960.66819 98.795665,955.37293 101.2026,958.78343 z M 83.949407,971.9816 C 81.649674,972.70468 76.587098,975.44958 72.699239,978.08137 L 65.630403,982.86645 63.875424,978.99584 62.120445,975.12522 55.822517,979.56995 49.52459,984.01467 51.450139,986.74307 53.375687,989.47146 52.088844,990.37965 C 51.38108,990.87914 48.883459,990.59789 46.538576,989.75464 L 42.27515,988.22146 49.655268,998.28433 57.035385,1008.3472 55.51728,1004.9687 C 54.68232,1003.1106 54.344002,1000.3121 54.765463,998.74981 L 55.531755,995.90932 58.38426,998.07283 61.236764,1000.2363 61.364127,1002.3218 61.491492,1004.4073 68.486713,998.84616 75.481932,993.28499 72.780397,988.54965 70.078864,983.81431 79.104801,977.2406 88.130739,970.66689 83.949407,971.9816 z M 61.677562,986.75592 65.151742,991.67864 62.44327,992.90848 59.7348,994.13832 57.2197,991.47423 54.704599,988.81015 56.453992,985.32167 58.203383,981.8332 61.677562,986.75592 z M 65.69779,1004.0354 C 65.411582,1003.6299 63.681696,1004.9361 61.853601,1006.9381 L 58.529793,1010.5781 53.9227,1007.2835 C 51.388799,1005.4715 48.335473,1002.6001 47.13753,1000.9027 L 44.959452,997.8165 42.894639,999.95837 C 41.758991,1001.1364 40.402557,1002.4721 39.880339,1002.9267 L 38.930853,1003.7532 41.259047,1007.0521 C 42.539552,1008.8665 43.898788,1011.5805 44.279568,1013.0833 L 44.971896,1015.8156 43.056141,1015.9326 41.140387,1016.0496 46.126529,1018.639 51.112671,1021.2283 53.919055,1020.5172 C 55.462567,1020.1261 58.401144,1018.6235 60.449227,1017.1781 L 64.173013,1014.55 65.195592,1009.6614 C 65.758009,1006.9727 65.983999,1004.441 65.69779,1004.0354 z"
             style="fill:#727272" />
          <path
             inkscape:connector-curvature="0"
             id="path6532"
             d="M 101.2026,958.78343 103.60954,962.19393 96.106445,967.48919 88.603353,972.78445 91.010289,976.19494 93.417226,979.60544 97.509821,976.71711 101.60242,973.82879 105.45352,979.28559 109.30461,984.74238 107.25832,986.18654 105.21202,987.6307 106.65618,989.677 108.10034,991.7233 75.633625,1014.6365 43.166911,1037.5497 38.331288,1034.1753 C 35.671697,1032.3195 32.754644,1029.751 31.848949,1028.4677 L 30.202233,1026.1344 31.694354,1023.905 33.186475,1021.6756 27.134453,1013.1002 21.082432,1004.5248 18.481957,1005.1838 15.881482,1005.8427 14.234765,1003.5094 C 13.329071,1002.2261 11.886444,998.61707 11.028926,995.48939 L 9.4698047,989.8027 41.297235,967.3407 73.124666,944.87869 75.354066,946.37081 77.583466,947.86293 79.483809,946.52178 81.384153,945.18062 85.235251,950.63742 89.086349,956.09421 84.993753,958.98253 80.901157,961.87086 82.345319,963.91715 83.789481,965.96345 91.292573,960.66819 98.795665,955.37293 101.2026,958.78343 z M 85.313606,971.01882 C 83.013873,971.74191 78.173113,974.33026 74.556361,976.77072 L 67.980448,981.20792 65.666432,977.92908 63.352417,974.65025 56.196961,978.99201 49.041507,983.33377 50.670389,985.64001 C 51.566275,986.90844 51.976829,988.70329 51.58273,989.62858 L 50.866187,991.31091 46.570669,989.76618 42.27515,988.22146 48.946617,997.76262 55.618086,1007.3038 52.305952,1005.7846 48.99382,1004.2653 44.07447,995.75542 39.155121,987.24551 35.337843,989.93953 31.520566,992.63355 32.215416,995.37582 C 32.597585,996.88407 35.474325,1001.7512 38.608172,1006.1917 L 44.306076,1014.2653 43.168914,1014.8259 C 42.543475,1015.1341 41.608489,1015.794 41.091168,1016.2922 L 40.150582,1017.198 45.045466,1019.1315 49.940349,1021.065 55.878125,1019.7447 61.815902,1018.4244 64.315129,1012.7449 66.814353,1007.0654 68.680116,1006.572 70.545881,1006.0786 68.977584,1003.8564 67.409287,1001.6343 62.770014,1006.1611 C 60.218416,1008.6509 57.895084,1010.354 57.607056,1009.9459 57.319027,1009.5378 56.431136,1006.245 55.633965,1002.6287 L 54.184564,996.05345 57.322473,997.53945 60.460379,999.02544 61.114381,1001.6065 61.768383,1004.1875 69.307258,998.25488 76.84613,992.32222 73.288796,988.19086 69.731461,984.05949 79.6132,976.88181 89.494938,969.70412 85.313606,971.01882 z M 62.122229,987.38599 65.151742,991.67864 62.439921,992.90374 59.7281,994.12883 57.347534,990.7557 54.966969,987.38257 57.029843,985.23795 59.092717,983.09334 62.122229,987.38599 z M 33.633546,983.34934 C 32.455359,983.82876 30.637398,986.01121 29.59363,988.19924 L 27.695874,992.17746 31.051989,990.49931 34.408105,988.82115 35.091905,985.64941 35.775704,982.47767 33.633546,983.34934 z M 39.090779,1009.7713 C 38.561254,1009.021 37.857291,1008.5982 37.526417,1008.8317 37.195543,1009.0652 36.978673,1010.1379 37.044482,1011.2155 L 37.164135,1013.1747 38.608844,1012.1551 C 39.403434,1011.5943 39.620305,1010.5216 39.090779,1009.7713 z"
             style="fill:#656565" />
          <path
             inkscape:connector-curvature="0"
             id="path6530"
             d="M 101.2026,958.78343 103.60954,962.19393 96.106445,967.48919 88.603353,972.78445 91.010289,976.19494 93.417226,979.60544 97.509821,976.71711 101.60242,973.82879 105.45352,979.28559 109.30461,984.74238 107.25832,986.18654 105.21202,987.6307 106.65618,989.677 108.10034,991.7233 75.633625,1014.6365 43.166911,1037.5497 38.331288,1034.1753 C 35.671697,1032.3195 32.754644,1029.751 31.848949,1028.4677 L 30.202233,1026.1344 31.694354,1023.905 33.186475,1021.6756 27.134453,1013.1002 21.082432,1004.5248 18.481957,1005.1838 15.881482,1005.8427 14.234765,1003.5094 C 13.329071,1002.2261 11.886444,998.61707 11.028926,995.48939 L 9.4698047,989.8027 41.297235,967.3407 73.124666,944.87869 75.354066,946.37081 77.583466,947.86293 79.483809,946.52178 81.384153,945.18062 85.235251,950.63742 89.086349,956.09421 84.993753,958.98253 80.901157,961.87086 82.345319,963.91715 83.789481,965.96345 91.292573,960.66819 98.795665,955.37293 101.2026,958.78343 z M 89.488897,968.9435 C 88.754751,968.81686 83.68672,971.24402 78.226605,974.33721 L 68.299125,979.96118 65.096205,977.11244 61.893285,974.26371 55.174798,978.38234 48.456312,982.50098 49.896405,984.54151 C 50.688457,985.66381 50.967342,987.44877 50.51615,988.5081 L 49.695803,990.43415 46.002393,989.25967 42.308982,988.0852 47.801548,995.95997 53.294116,1003.8347 51.929917,1004.7975 50.565719,1005.7603 46.16994,999.5317 41.77416,993.30312 41.324102,989.66776 40.874044,986.0324 38.779748,987.51043 36.685452,988.98847 35.698608,987.59016 34.711764,986.19186 38.3212,982.38535 41.930637,978.57885 39.303198,978.7092 C 37.858107,978.78089 35.447734,979.70569 33.946813,980.76431 32.445893,981.82294 30.273224,984.49177 29.118662,986.69505 L 27.019457,990.70101 35.284466,1002.2392 43.549474,1013.7775 40.656582,1011.0646 37.763689,1008.3517 36.412698,1010.3703 35.061706,1012.3888 32.367382,1009.805 29.673058,1007.2213 32.616296,1011.786 35.559534,1016.3508 36.96882,1014.8453 38.378104,1013.3398 40.540514,1015.9868 C 41.729839,1017.4427 44.358121,1019.4639 46.381142,1020.4784 L 50.059361,1022.3229 56.408938,1020.1942 62.758514,1018.0655 64.809104,1012.8741 C 65.93693,1010.0189 68.077627,1006.7921 69.56621,1005.7036 L 72.272725,1003.7246 71.643646,1001.6139 71.014567,999.50331 64.150855,1004.3473 57.287144,1009.1914 55.803367,1004.0146 54.319587,998.83792 56.260347,998.29731 58.201106,997.7567 59.972173,1000.9816 61.74324,1004.2064 69.294685,998.26433 76.84613,992.32222 73.370871,988.13293 69.895613,983.94364 80.359661,976.55871 90.823708,969.17377 89.488897,968.9435 z M 61.754638,988.15633 64.847086,991.59395 63.612619,992.46517 C 62.933661,992.94434 60.934559,992.61246 59.170168,991.72765 L 55.962186,990.11892 56.798059,987.02051 C 57.257791,985.31638 57.865291,984.10133 58.14806,984.3204 58.430831,984.53947 60.05379,986.26564 61.754638,988.15633 z M 31.926791,999.62032 30.425809,997.49351 29.061611,998.45629 C 28.311301,998.98581 28.105091,999.99672 28.603366,1000.7027 29.101642,1001.4088 30.390972,1001.9326 31.468547,1001.8668 L 33.427773,1001.7471 31.926791,999.62032 z"
             style="fill:#545454" />
          <path
             inkscape:connector-curvature="0"
             id="path6528"
             d="M 101.2026,958.78343 103.60954,962.19393 96.106445,967.48919 88.603353,972.78445 91.010289,976.19494 93.417226,979.60544 97.509821,976.71711 101.60242,973.82879 105.45352,979.28559 109.30461,984.74238 107.25832,986.18654 105.21202,987.6307 106.65618,989.677 108.10034,991.7233 75.633625,1014.6365 43.166911,1037.5497 38.331288,1034.1753 C 35.671697,1032.3195 32.754644,1029.751 31.848949,1028.4677 L 30.202233,1026.1344 31.694354,1023.905 33.186475,1021.6756 27.134453,1013.1002 21.082432,1004.5248 18.481957,1005.1838 15.881482,1005.8427 14.234765,1003.5094 C 13.329071,1002.2261 11.886444,998.61707 11.028926,995.48939 L 9.4698047,989.8027 41.297235,967.3407 73.124666,944.87869 75.354066,946.37081 77.583466,947.86293 79.483809,946.52178 81.384153,945.18062 85.235251,950.63742 89.086349,956.09421 84.993753,958.98253 80.901157,961.87086 82.345319,963.91715 83.789481,965.96345 91.292573,960.66819 98.795665,955.37293 101.2026,958.78343 z M 87.958552,968.97503 C 85.704717,969.76315 80.635341,972.59256 76.693271,975.26261 L 69.525874,980.11724 66.44658,976.67034 63.367288,973.22344 56.030321,977.78962 48.693354,982.35581 49.817793,985.89974 50.942233,989.44367 46.673695,988.92467 42.405161,988.40567 47.31143,995.35759 52.217701,1002.3095 51.44853,1004.1154 50.679359,1005.9213 46.07025,999.3461 41.461141,992.7709 41.314541,989.8774 41.167944,986.9839 38.478983,986.25848 35.790024,985.53307 39.287048,983.06507 42.784073,980.59706 42.676957,978.84314 42.569842,977.08921 39.837534,977.78153 C 38.334764,978.16231 35.124154,979.87199 32.702843,981.58082 L 28.300461,984.68777 27.081159,988.30818 25.861856,991.9286 28.729576,994.34624 31.597293,996.76388 29.87433,997.68914 C 28.926701,998.19804 27.435338,999.2287 26.560191,999.97951 L 24.969015,1001.3446 30.992872,1009.8663 37.016731,1018.3879 45.234258,1020.1677 53.451784,1021.9474 57.851126,1020.2479 62.250469,1018.5483 65.088046,1012.8529 67.925621,1007.1575 69.44284,1007.4193 70.960057,1007.681 71.718516,1004.8695 C 72.13567,1003.3233 72.096776,1001.5194 71.632087,1000.8609 L 70.7872,999.66378 63.549149,1004.6106 56.311097,1009.5575 57.472128,1007.7456 58.633158,1005.9337 56.737903,1004.6652 54.842648,1003.3967 55.716118,1000.1589 56.589588,996.92115 58.072577,998.67937 C 58.88822,999.64639 60.012551,1001.3121 60.571088,1002.3809 L 61.586613,1004.3241 69.216372,998.32317 76.84613,992.32222 74.07539,987.47146 71.304651,982.6207 73.841889,981.9778 76.379128,981.3349 84.21778,974.43849 92.056434,967.54208 87.958552,968.97503 z M 63.096632,989.55093 64.502511,989.79346 61.81179,991.53108 59.121066,993.2687 60.405909,991.28855 61.690752,989.30841 63.096632,989.55093 z M 59.795256,986.98456 C 60.324782,987.73487 60.107911,988.80758 59.313321,989.36836 L 57.868612,990.38795 57.748958,988.42873 C 57.68315,987.35115 57.900019,986.27845 58.230893,986.04493 58.561768,985.81142 59.26573,986.23426 59.795256,986.98456 z M 35.778465,1002.9124 39.602032,1008.3887 36.831279,1005.722 C 35.307364,1004.2554 33.586759,1001.7911 33.007712,1000.2458 L 31.954897,997.4362 35.778465,1002.9124 z M 34.41369,1006.0399 36.763806,1009.3699 35.689784,1010.1279 34.61576,1010.8858 31.338536,1006.9201 28.061312,1002.9543 30.062442,1002.8321 32.063574,1002.7099 34.41369,1006.0399 z M 39.250706,1015.7894 40.534405,1017.6084 38.983089,1017.3408 37.431775,1017.0731 37.69939,1015.5218 37.967007,1013.9705 39.250706,1015.7894 z"
             style="fill:#4e4e4e" />
          <path
             inkscape:connector-curvature="0"
             id="path6526"
             d="M 101.2026,958.78343 103.60954,962.19393 96.106445,967.48919 88.603353,972.78445 91.010289,976.19494 93.417226,979.60544 97.509821,976.71711 101.60242,973.82879 105.45352,979.28559 109.30461,984.74238 107.25832,986.18654 105.21202,987.6307 106.65618,989.677 108.10034,991.7233 75.633625,1014.6365 43.166911,1037.5497 38.331288,1034.1753 C 35.671697,1032.3195 32.754644,1029.751 31.848949,1028.4677 L 30.202233,1026.1344 31.694354,1023.905 33.186475,1021.6756 27.134453,1013.1002 21.082432,1004.5248 18.481957,1005.1838 15.881482,1005.8427 14.234765,1003.5094 C 13.329071,1002.2261 11.886444,998.61707 11.028926,995.48939 L 9.4698047,989.8027 41.297235,967.3407 73.124666,944.87869 75.354066,946.37081 77.583466,947.86293 79.483809,946.52178 81.384153,945.18062 85.235251,950.63742 89.086349,956.09421 84.993753,958.98253 80.901157,961.87086 82.345319,963.91715 83.789481,965.96345 91.292573,960.66819 98.795665,955.37293 101.2026,958.78343 z M 98.1296,963.11646 C 97.896088,962.78559 96.884302,962.565 95.881186,962.62626 L 94.05734,962.73764 94.178944,964.72883 94.30055,966.72001 96.427359,965.21903 C 97.597103,964.39349 98.363113,963.44734 98.1296,963.11646 z M 87.958552,968.97503 C 85.704717,969.76315 80.635341,972.59256 76.693271,975.26261 L 69.525874,980.11724 66.44658,976.67034 63.367288,973.22344 56.030321,977.78962 48.693354,982.35581 49.817793,985.89974 50.942233,989.44367 46.673695,988.92467 42.405161,988.40567 47.31143,995.35759 52.217701,1002.3095 51.44853,1004.1154 50.679359,1005.9213 46.07025,999.3461 41.461141,992.7709 41.314541,989.8774 41.167944,986.9839 38.478983,986.25848 35.790024,985.53307 39.287048,983.06507 42.784073,980.59706 42.676957,978.84314 42.569842,977.08921 39.837534,977.78153 C 38.334764,978.16231 35.124154,979.87199 32.702843,981.58082 L 28.300461,984.68777 27.081159,988.30818 25.861856,991.9286 28.729576,994.34624 31.597293,996.76388 29.87433,997.68914 C 28.926701,998.19804 27.435338,999.2287 26.560191,999.97951 L 24.969015,1001.3446 30.992872,1009.8663 37.016731,1018.3879 45.234258,1020.1677 53.451784,1021.9474 57.851126,1020.2479 62.250469,1018.5483 65.088046,1012.8529 67.925621,1007.1575 69.44284,1007.4193 70.960057,1007.681 71.718516,1004.8695 C 72.13567,1003.3233 72.096776,1001.5194 71.632087,1000.8609 L 70.7872,999.66378 63.549149,1004.6106 56.311097,1009.5575 57.472128,1007.7456 58.633158,1005.9337 56.737903,1004.6652 54.842648,1003.3967 55.716118,1000.1589 56.589588,996.92115 58.072577,998.67937 C 58.88822,999.64639 60.012551,1001.3121 60.571088,1002.3809 L 61.586613,1004.3241 69.216372,998.32317 76.84613,992.32222 74.07539,987.47146 71.304651,982.6207 73.841889,981.9778 76.379128,981.3349 84.21778,974.43849 92.056434,967.54208 87.958552,968.97503 z M 63.096632,989.55093 64.502511,989.79346 61.81179,991.53108 59.121066,993.2687 60.405909,991.28855 61.690752,989.30841 63.096632,989.55093 z M 59.795256,986.98456 C 60.324782,987.73487 60.107911,988.80758 59.313321,989.36836 L 57.868612,990.38795 57.748958,988.42873 C 57.68315,987.35115 57.900019,986.27845 58.230893,986.04493 58.561768,985.81142 59.26573,986.23426 59.795256,986.98456 z M 35.778465,1002.9124 39.602032,1008.3887 36.831279,1005.722 C 35.307364,1004.2554 33.586759,1001.7911 33.007712,1000.2458 L 31.954897,997.4362 35.778465,1002.9124 z M 34.41369,1006.0399 36.763806,1009.3699 35.689784,1010.1279 34.61576,1010.8858 31.338536,1006.9201 28.061312,1002.9543 30.062442,1002.8321 32.063574,1002.7099 34.41369,1006.0399 z M 39.250706,1015.7894 40.534405,1017.6084 38.983089,1017.3408 37.431775,1017.0731 37.69939,1015.5218 37.967007,1013.9705 39.250706,1015.7894 z M 46.150053,1031.357 44.866354,1029.538 44.598737,1031.0894 44.331122,1032.6407 45.882437,1032.9083 47.433752,1033.1759 46.150053,1031.357 z"
             style="fill:#454545" />
          <path
             inkscape:connector-curvature="0"
             id="path6524"
             d="M 101.2026,958.78343 103.60954,962.19393 96.106445,967.48919 88.603353,972.78445 91.010289,976.19494 93.417226,979.60544 97.509821,976.71711 101.60242,973.82879 105.45352,979.28559 109.30461,984.74238 107.25832,986.18654 105.21202,987.6307 106.65618,989.677 108.10034,991.7233 75.633625,1014.6365 43.166911,1037.5497 38.331288,1034.1753 C 35.671697,1032.3195 32.754644,1029.751 31.848949,1028.4677 L 30.202233,1026.1344 31.694354,1023.905 33.186475,1021.6756 27.134453,1013.1002 21.082432,1004.5248 18.481957,1005.1838 15.881482,1005.8427 14.234765,1003.5094 C 13.329071,1002.2261 11.886444,998.61707 11.028926,995.48939 L 9.4698047,989.8027 41.297235,967.3407 73.124666,944.87869 75.354066,946.37081 77.583466,947.86293 79.483809,946.52178 81.384153,945.18062 85.235251,950.63742 89.086349,956.09421 84.993753,958.98253 80.901157,961.87086 82.345319,963.91715 83.789481,965.96345 91.292573,960.66819 98.795665,955.37293 101.2026,958.78343 z M 98.1296,963.11646 C 97.896088,962.78559 96.884302,962.565 95.881186,962.62626 L 94.05734,962.73764 94.178944,964.72883 94.30055,966.72001 96.427359,965.21903 C 97.597103,964.39349 98.363113,963.44734 98.1296,963.11646 z M 91.64554,966.91932 C 90.934661,966.79669 85.696809,969.46505 80.005867,972.84901 L 69.6587,979.00167 66.457555,976.15168 63.25641,973.30169 55.841009,977.91644 48.425607,982.53119 49.425248,986.28505 50.424889,990.03891 44.239438,987.49802 38.053987,984.95713 41.887765,981.60103 45.721543,978.24494 42.722119,977.43577 39.722694,976.6266 33.517207,981.00608 27.31172,985.38557 26.410335,989.40396 C 25.914572,991.61408 26.105271,994.26732 26.834109,995.30004 L 28.159269,997.17772 26.667148,999.40712 25.175027,1001.6365 31.109657,1010.0025 37.044285,1018.3684 45.104107,1020.4206 53.163928,1022.4728 58.885363,1019.6551 64.606797,1016.8374 65.563088,1012.5742 66.519379,1008.3111 68.99987,1007.6825 71.480363,1007.054 72.227418,1001.7381 72.974471,996.42227 75.689483,993.2656 78.404495,990.10893 75.170843,987.32771 71.93719,984.54648 78.735548,979.74859 C 82.474645,977.10974 87.199837,973.1938 89.235975,971.04649 L 92.938043,967.14229 91.64554,966.91932 z M 65.863338,1001.6681 71.145608,998.72374 63.728353,1004.1406 56.311097,1009.5575 57.537236,1007.6571 58.763375,1005.7567 57.37777,1005.1666 55.992163,1004.5764 56.257572,1000.5116 56.52298,996.4468 58.552024,1000.5296 60.581067,1004.6125 65.863338,1001.6681 z M 46.707244,998.26502 52.002503,1005.7681 48.786562,1002.4176 C 47.017794,1000.5749 44.634927,997.1985 43.491302,994.91455 L 41.411984,990.76192 46.707244,998.26502 z M 32.912708,1003.9131 C 33.442234,1004.6634 33.261594,1005.7105 32.511284,1006.2401 31.760975,1006.7696 30.713837,1006.5889 30.184311,1005.8386 29.654785,1005.0883 29.835426,1004.0412 30.585735,1003.5117 31.336045,1002.9821 32.383183,1003.1628 32.912708,1003.9131 z M 50.033704,974.11824 48.482388,973.85062 48.214771,975.40194 47.947156,976.95325 49.766087,975.66955 51.585018,974.38585 50.033704,974.11824 z M 46.150053,1031.357 44.866354,1029.538 44.598737,1031.0894 44.331122,1032.6407 45.882437,1032.9083 47.433752,1033.1759 46.150053,1031.357 z"
             style="fill:#3e3e3e" />
          <path
             inkscape:connector-curvature="0"
             id="path6522"
             d="M 101.2026,958.78343 103.60954,962.19393 96.106445,967.48919 88.603353,972.78445 91.010289,976.19494 93.417226,979.60544 97.509821,976.71711 101.60242,973.82879 105.45352,979.28559 109.30461,984.74238 107.25832,986.18654 105.21202,987.6307 106.65618,989.677 108.10034,991.7233 75.633625,1014.6365 43.166911,1037.5497 38.331288,1034.1753 C 35.671697,1032.3195 32.754644,1029.751 31.848949,1028.4677 L 30.202233,1026.1344 31.694354,1023.905 33.186475,1021.6756 27.134453,1013.1002 21.082432,1004.5248 18.481957,1005.1838 15.881482,1005.8427 14.234765,1003.5094 C 13.329071,1002.2261 11.886444,998.61707 11.028926,995.48939 L 9.4698047,989.8027 41.297235,967.3407 73.124666,944.87869 75.354066,946.37081 77.583466,947.86293 79.483809,946.52178 81.384153,945.18062 85.235251,950.63742 89.086349,956.09421 84.993753,958.98253 80.901157,961.87086 82.345319,963.91715 83.789481,965.96345 91.292573,960.66819 98.795665,955.37293 101.2026,958.78343 z M 97.23489,963.09109 C 96.62969,962.98669 90.855016,966.23495 84.402281,970.30944 77.949547,974.38394 71.779308,977.9833 70.690639,978.30802 L 68.711243,978.89843 66.039265,976.06093 63.367288,973.22344 55.896447,977.87731 48.425607,982.53119 49.425248,986.28505 50.424889,990.03891 44.239438,987.49802 38.053987,984.95713 41.887765,981.60103 45.721543,978.24494 42.722119,977.43577 39.722694,976.6266 33.280173,981.17337 26.837652,985.72014 26.472134,989.55452 C 26.271099,991.66343 26.48381,994.7321 26.944828,996.37377 27.405846,998.01544 27.149885,999.80547 26.376029,1000.3516 L 24.969015,1001.3446 31.00665,1009.8565 37.044285,1018.3684 45.104107,1020.4206 53.163928,1022.4728 58.885363,1019.6551 64.606797,1016.8374 65.563088,1012.5742 66.519379,1008.3111 68.99987,1007.6825 71.480363,1007.054 72.227418,1001.7381 72.974471,996.42227 75.689483,993.2656 78.404495,990.10893 75.170843,987.32771 71.93719,984.54648 77.341759,980.73224 C 80.314271,978.63441 86.253835,973.84966 90.540791,970.09946 94.827745,966.34926 97.840089,963.1955 97.23489,963.09109 z M 65.863338,1001.6681 71.145608,998.72374 63.728353,1004.1406 56.311097,1009.5575 57.537236,1007.6571 58.763375,1005.7567 57.37777,1005.1666 55.992163,1004.5764 56.257572,1000.5116 56.52298,996.4468 58.552024,1000.5296 60.581067,1004.6125 65.863338,1001.6681 z M 46.707244,998.26502 52.002503,1005.7681 48.786562,1002.4176 C 47.017794,1000.5749 44.634927,997.1985 43.491302,994.91455 L 41.411984,990.76192 46.707244,998.26502 z M 32.912708,1003.9131 34.196407,1005.732 32.645092,1005.4644 31.093777,1005.1968 31.361392,1003.6455 31.629009,1002.0941 32.912708,1003.9131 z M 50.033704,974.11824 48.482388,973.85062 48.214771,975.40194 47.947156,976.95325 49.766087,975.66955 51.585018,974.38585 50.033704,974.11824 z M 46.150053,1031.357 44.866354,1029.538 44.598737,1031.0894 44.331122,1032.6407 45.882437,1032.9083 47.433752,1033.1759 46.150053,1031.357 z"
             style="fill:#3d3d3d" />
          <path
             inkscape:connector-curvature="0"
             id="path6520"
             d="M 101.2026,958.78343 103.60954,962.19393 100.88114,964.11947 98.152743,966.04502 97.460109,964.33966 96.767476,962.63429 84.718756,970.17595 C 78.09196,974.32387 71.779308,977.9833 70.690639,978.30802 L 68.711243,978.89843 66.039265,976.06093 63.367288,973.22344 55.896447,977.87731 48.425607,982.53119 49.425248,986.28505 50.424889,990.03891 44.239438,987.49802 38.053987,984.95713 41.887765,981.60103 45.721543,978.24494 42.722119,977.43577 39.722694,976.6266 33.280173,981.17337 26.837652,985.72014 26.472134,989.55452 C 26.271099,991.66343 26.48381,994.7321 26.944828,996.37377 27.405846,998.01544 27.149885,999.80547 26.376029,1000.3516 L 24.969015,1001.3446 31.066853,1009.9849 37.164691,1018.6252 46.423225,1020.6058 55.681759,1022.5864 60.498969,1019.1867 65.316181,1015.7869 65.582073,1012.3917 65.847965,1008.9965 68.676762,1007.9356 71.505559,1006.8747 72.240015,1001.6485 72.974471,996.42227 75.689483,993.2656 78.404495,990.10893 75.170843,987.32771 71.93719,984.54648 78.033571,980.244 C 81.38658,977.87764 86.664276,973.81248 89.761781,971.21033 92.859287,968.60817 93.893252,967.93673 92.059482,969.71822 L 88.725353,972.95731 91.071289,976.28137 93.417226,979.60544 97.509821,976.71711 101.60242,973.82879 105.45352,979.28559 109.30461,984.74238 107.25832,986.18654 105.21202,987.6307 106.65618,989.677 108.10034,991.7233 78.087971,1012.9043 48.075602,1034.0854 46.631441,1032.0391 45.187279,1029.9928 43.677126,1031.0586 42.166973,1032.1243 44.396373,1033.6165 46.625773,1035.1086 44.896343,1036.3291 43.166911,1037.5497 38.331288,1034.1753 C 35.671697,1032.3195 32.754644,1029.751 31.848949,1028.4677 L 30.202233,1026.1344 31.694354,1023.905 33.186475,1021.6756 27.134453,1013.1002 21.082432,1004.5248 18.481957,1005.1838 15.881482,1005.8427 14.234765,1003.5094 C 13.329071,1002.2261 11.886444,998.61707 11.028926,995.48939 L 9.4698047,989.8027 41.297235,967.3407 73.124666,944.87869 75.354066,946.37081 77.583466,947.86293 79.483809,946.52178 81.384153,945.18062 85.235251,950.63742 89.086349,956.09421 84.993753,958.98253 80.901157,961.87086 82.345319,963.91715 83.789481,965.96345 91.292573,960.66819 98.795665,955.37293 101.2026,958.78343 z M 82.301316,1005.8435 80.495421,1005.0743 74.517549,1009.2931 68.539677,1013.512 68.65933,1015.4712 68.778984,1017.4304 76.443098,1012.0215 84.107212,1006.6126 82.301316,1005.8435 z M 50.033704,974.11824 48.482388,973.85062 48.214771,975.40194 47.947156,976.95325 49.766087,975.66955 51.585018,974.38585 50.033704,974.11824 z M 65.863338,1001.6681 71.145608,998.72374 63.728353,1004.1406 56.311097,1009.5575 57.537236,1007.6571 58.763375,1005.7567 57.37777,1005.1666 55.992163,1004.5764 56.257572,1000.5116 56.52298,996.4468 58.552024,1000.5296 60.581067,1004.6125 65.863338,1001.6681 z M 46.707244,998.26502 52.002503,1005.7681 48.786562,1002.4176 C 47.017794,1000.5749 44.634927,997.1985 43.491302,994.91455 L 41.411984,990.76192 46.707244,998.26502 z M 32.912708,1003.9131 34.196407,1005.732 32.645092,1005.4644 31.093777,1005.1968 31.361392,1003.6455 31.629009,1002.0941 32.912708,1003.9131 z"
             style="fill:#3b3b3b" />
          <path
             inkscape:connector-curvature="0"
             id="path6518"
             d="M 101.2026,958.78343 103.60954,962.19393 100.88114,964.11947 98.152743,966.04502 97.473931,964.35924 96.795119,962.67346 86.12575,969.27382 C 80.257598,972.90402 73.906467,976.51965 72.012124,977.30855 L 68.567867,978.74294 65.967578,975.98319 63.367288,973.22344 55.896447,977.87731 48.425607,982.53119 49.425248,986.28505 50.424889,990.03891 44.239438,987.49802 38.053987,984.95713 41.887765,981.60103 45.721543,978.24494 42.722119,977.43577 39.722694,976.6266 33.280173,981.17337 26.837652,985.72014 26.472134,989.55452 C 26.271099,991.66343 26.48381,994.7321 26.944828,996.37377 27.405846,998.01544 27.149885,999.80547 26.376029,1000.3516 L 24.969015,1001.3446 31.066853,1009.9849 37.164691,1018.6252 46.423225,1020.6058 55.681759,1022.5864 60.498969,1019.1867 65.316181,1015.7869 65.582073,1012.3917 65.847965,1008.9965 68.676762,1007.9356 71.505559,1006.8747 72.240015,1001.6485 72.974471,996.42227 75.689483,993.2656 78.404495,990.10893 75.170843,987.32771 71.93719,984.54648 78.033571,980.244 C 81.38658,977.87764 86.664276,973.81248 89.761781,971.21033 92.859287,968.60817 93.893252,967.93673 92.059482,969.71822 L 88.725353,972.95731 91.071289,976.28137 93.417226,979.60544 97.509821,976.71711 101.60242,973.82879 105.45352,979.28559 109.30461,984.74238 107.25832,986.18654 105.21202,987.6307 106.65618,989.677 108.10034,991.7233 78.087971,1012.9043 48.075602,1034.0854 46.631441,1032.0391 45.187279,1029.9928 43.677126,1031.0586 42.166973,1032.1243 44.396373,1033.6165 46.625773,1035.1086 44.896343,1036.3291 43.166911,1037.5497 38.331288,1034.1753 C 35.671697,1032.3195 32.754644,1029.751 31.848949,1028.4677 L 30.202233,1026.1344 31.694354,1023.905 33.186475,1021.6756 27.134453,1013.1002 21.082432,1004.5248 18.481957,1005.1838 15.881482,1005.8427 14.234765,1003.5094 C 13.329071,1002.2261 11.886444,998.61707 11.028926,995.48939 L 9.4698047,989.8027 41.297235,967.3407 73.124666,944.87869 75.354066,946.37081 77.583466,947.86293 79.483809,946.52178 81.384153,945.18062 85.235251,950.63742 89.086349,956.09421 84.993753,958.98253 80.901157,961.87086 82.345319,963.91715 83.789481,965.96345 91.292573,960.66819 98.795665,955.37293 101.2026,958.78343 z M 82.301316,1005.8435 80.495421,1005.0743 74.517549,1009.2931 68.539677,1013.512 68.65933,1015.4712 68.778984,1017.4304 76.443098,1012.0215 84.107212,1006.6126 82.301316,1005.8435 z M 50.033704,974.11824 48.482388,973.85062 48.214771,975.40194 47.947156,976.95325 49.766087,975.66955 51.585018,974.38585 50.033704,974.11824 z M 65.863338,1001.6681 71.145608,998.72374 63.728353,1004.1406 56.311097,1009.5575 57.537236,1007.6571 58.763375,1005.7567 57.37777,1005.1666 55.992163,1004.5764 56.257572,1000.5116 56.52298,996.4468 58.552024,1000.5296 60.581067,1004.6125 65.863338,1001.6681 z M 46.707244,998.26502 52.002503,1005.7681 48.786562,1002.4176 C 47.017794,1000.5749 44.634927,997.1985 43.491302,994.91455 L 41.411984,990.76192 46.707244,998.26502 z M 32.912708,1003.9131 34.196407,1005.732 32.645092,1005.4644 31.093777,1005.1968 31.361392,1003.6455 31.629009,1002.0941 32.912708,1003.9131 z"
             style="fill:#393939" />
          <path
             inkscape:connector-curvature="0"
             id="path6516"
             d="M 101.2026,958.78343 103.60954,962.19393 101.56324,963.63809 99.516942,965.08225 98.309335,963.37992 97.101728,961.67759 85.589,969.246 C 79.257,973.40862 72.813442,977.2229 71.269981,977.72218 L 68.463692,978.62995 65.91549,975.9267 63.367288,973.22344 55.896447,977.87731 48.425607,982.53119 49.425248,986.28505 50.424889,990.03891 44.239438,987.49802 38.053987,984.95713 41.887765,981.60103 45.721543,978.24494 42.722119,977.43577 39.722694,976.6266 33.280173,981.17337 26.837652,985.72014 26.472134,989.55452 C 26.271099,991.66343 26.48381,994.7321 26.944828,996.37377 27.405846,998.01544 27.149885,999.80547 26.376029,1000.3516 L 24.969015,1001.3446 31.066853,1009.9849 37.164691,1018.6252 46.423225,1020.6058 55.681759,1022.5864 60.498969,1019.1867 65.316181,1015.7869 65.582073,1012.3917 65.847965,1008.9965 68.676762,1007.9356 71.505559,1006.8747 72.240015,1001.6485 72.974471,996.42227 75.689483,993.2656 78.404495,990.10893 75.170843,987.32771 71.93719,984.54648 78.554427,979.85392 C 82.193907,977.27301 87.165331,973.42543 89.602033,971.30375 92.038737,969.18207 92.839644,968.68804 91.381827,970.20591 L 88.731253,972.96567 91.074239,976.28555 93.417226,979.60544 97.509821,976.71711 101.60242,973.82879 105.45352,979.28559 109.30461,984.74238 107.25832,986.18654 105.21202,987.6307 106.65618,989.677 108.10034,991.7233 91.916928,1002.8176 75.733514,1013.9119 79.803387,1010.2124 83.873259,1006.513 82.18434,1005.7936 80.495421,1005.0743 75.473333,1008.6465 C 72.711185,1010.6112 69.232892,1013.6803 67.743796,1015.4667 L 65.036344,1018.7148 68.14642,1017.8299 71.256495,1016.945 59.660866,1025.5078 48.065238,1034.0707 46.626259,1032.0317 45.187279,1029.9928 43.82308,1030.9556 42.458882,1031.9183 43.903043,1033.9646 C 44.697332,1035.0901 44.856639,1036.3571 44.257058,1036.7803 43.657477,1037.2034 40.990881,1036.0312 38.331288,1034.1753 35.671697,1032.3195 32.754644,1029.751 31.848949,1028.4677 L 30.202233,1026.1344 31.694354,1023.905 33.186475,1021.6756 27.134453,1013.1002 21.082432,1004.5248 18.481957,1005.1838 15.881482,1005.8427 14.234765,1003.5094 C 13.329071,1002.2261 11.886444,998.61707 11.028926,995.48939 L 9.4698047,989.8027 41.297235,967.3407 73.124666,944.87869 75.354066,946.37081 77.583466,947.86293 79.483809,946.52178 81.384153,945.18062 85.235251,950.63742 89.086349,956.09421 84.993753,958.98253 80.901157,961.87086 82.345319,963.91715 83.789481,965.96345 91.292573,960.66819 98.795665,955.37293 101.2026,958.78343 z M 50.033704,974.11824 48.482388,973.85062 48.214771,975.40194 47.947156,976.95325 49.766087,975.66955 51.585018,974.38585 50.033704,974.11824 z M 65.863338,1001.6681 71.145608,998.72374 63.728353,1004.1406 56.311097,1009.5575 57.537236,1007.6571 58.763375,1005.7567 57.37777,1005.1666 55.992163,1004.5764 56.257572,1000.5116 56.52298,996.4468 58.552024,1000.5296 60.581067,1004.6125 65.863338,1001.6681 z M 46.707244,998.26502 52.002503,1005.7681 48.786562,1002.4176 C 47.017794,1000.5749 44.634927,997.1985 43.491302,994.91455 L 41.411984,990.76192 46.707244,998.26502 z M 32.912708,1003.9131 34.196407,1005.732 32.645092,1005.4644 31.093777,1005.1968 31.361392,1003.6455 31.629009,1002.0941 32.912708,1003.9131 z"
             style="fill:#353535" />
          <path
             inkscape:connector-curvature="0"
             id="path6514"
             d="M 101.2026,958.78343 103.60954,962.19393 101.56324,963.63809 99.516942,965.08225 98.745063,963.2646 97.973184,961.44694 86.742916,968.70042 C 80.566269,972.68984 73.950073,976.58143 72.040259,977.34842 L 68.567867,978.74294 65.967578,975.98319 63.367288,973.22344 55.896447,977.87731 48.425607,982.53119 49.425248,986.28505 50.424889,990.03891 44.239438,987.49802 38.053987,984.95713 41.887765,981.60103 45.721543,978.24494 42.722119,977.43577 39.722694,976.6266 33.280173,981.17337 26.837652,985.72014 26.472134,989.55452 C 26.271099,991.66343 26.48381,994.7321 26.944828,996.37377 27.405846,998.01544 27.149885,999.80547 26.376029,1000.3516 L 24.969015,1001.3446 30.8099,1009.6208 36.650785,1017.897 43.818208,1020.1505 50.985631,1022.404 56.374299,1021.2912 61.762967,1020.1783 57.804026,1023.256 53.845084,1026.3337 58.026417,1025.019 62.207749,1023.7043 55.141676,1028.8948 48.075602,1034.0854 47.270363,1032.2205 46.465124,1030.3555 43.709309,1031.5183 40.953494,1032.681 42.655546,1035.2061 44.357599,1037.7312 39.125145,1034.5474 C 36.247296,1032.7963 33.062339,1030.187 32.047462,1028.749 L 30.202233,1026.1344 31.694354,1023.905 33.186475,1021.6756 27.134453,1013.1002 21.082432,1004.5248 18.481957,1005.1838 15.881482,1005.8427 14.234765,1003.5094 C 13.329071,1002.2261 11.886444,998.61707 11.028926,995.48939 L 9.4698047,989.8027 41.297235,967.3407 73.124666,944.87869 75.354066,946.37081 77.583466,947.86293 79.483809,946.52178 81.384153,945.18062 85.235251,950.63742 89.086349,956.09421 84.993753,958.98253 80.901157,961.87086 82.345319,963.91715 83.789481,965.96345 91.292573,960.66819 98.795665,955.37293 101.2026,958.78343 z M 50.033704,974.11824 48.482388,973.85062 48.214771,975.40194 47.947156,976.95325 49.766087,975.66955 51.585018,974.38585 50.033704,974.11824 z M 105.45352,979.28559 109.30461,984.74238 107.25832,986.18654 105.21202,987.6307 106.65618,989.677 108.10034,991.7233 93.963225,1001.3734 79.82611,1011.0235 83.871448,1007.3443 87.916786,1003.6651 87.015012,1002.3873 86.113237,1001.1095 75.714708,1008.4482 65.316181,1015.7869 65.582073,1012.3917 65.847965,1008.9965 68.676762,1007.9356 71.505559,1006.8747 72.240015,1001.6485 72.974471,996.42227 75.689483,993.2656 78.404495,990.10893 75.170843,987.32771 71.93719,984.54648 78.554427,979.85392 C 82.193907,977.27301 87.165331,973.42543 89.602033,971.30375 92.038737,969.18207 92.839644,968.68804 91.381827,970.20591 L 88.731253,972.96567 91.074239,976.28555 93.417226,979.60544 97.509821,976.71711 101.60242,973.82879 105.45352,979.28559 z M 65.863338,1001.6681 71.145608,998.72374 63.728353,1004.1406 56.311097,1009.5575 57.537236,1007.6571 58.763375,1005.7567 57.37777,1005.1666 55.992163,1004.5764 56.257572,1000.5116 56.52298,996.4468 58.552024,1000.5296 60.581067,1004.6125 65.863338,1001.6681 z M 67.441999,1019.0552 68.993314,1019.3228 67.174383,1020.6065 65.355452,1021.8902 65.623067,1020.3389 65.890684,1018.7876 67.441999,1019.0552 z M 46.707244,998.26502 52.002503,1005.7681 48.786562,1002.4176 C 47.017794,1000.5749 44.634927,997.1985 43.491302,994.91455 L 41.411984,990.76192 46.707244,998.26502 z M 32.912708,1003.9131 34.196407,1005.732 32.645092,1005.4644 31.093777,1005.1968 31.361392,1003.6455 31.629009,1002.0941 32.912708,1003.9131 z"
             style="fill:#353535" />
          <path
             inkscape:connector-curvature="0"
             id="path6512"
             d="M 101.2026,958.78343 103.60954,962.19393 101.56324,963.63809 99.516942,965.08225 98.72513,963.23635 97.933317,961.39046 88.528405,967.37041 C 83.355704,970.65939 76.380053,974.45778 73.026957,975.81128 L 66.930422,978.2722 72.631554,974.04338 78.332686,969.81455 77.369912,968.45035 76.407137,967.08615 71.905282,970.26331 67.403427,973.44046 65.21679,973.0931 63.030154,972.74574 55.26495,977.65546 47.499749,982.56518 48.745653,985.32306 49.991557,988.08095 45.867732,987.57954 41.743906,987.07814 41.126256,984.64055 40.508606,982.20296 46.046811,978.29441 51.585018,974.38585 49.986301,974.11006 C 49.107005,973.95837 47.187268,974.38736 45.720217,975.06336 44.253166,975.73936 40.178234,977.77013 36.664814,979.57617 L 30.276774,982.85989 27.498407,986.09022 24.72004,989.32055 26.216658,993.1945 27.713277,997.06844 26.31093,999.16371 24.908581,1001.259 31.678219,1010.8512 38.447857,1020.4434 39.841303,1019.46 C 40.607698,1018.9191 42.979729,1019.4959 45.112484,1020.7418 L 48.990221,1023.0071 55.364669,1021.5758 61.739118,1020.1445 57.792101,1023.2391 53.845084,1026.3337 58.026417,1025.019 62.207749,1023.7043 55.141676,1028.8948 48.075602,1034.0854 47.270363,1032.2205 46.465124,1030.3555 43.709309,1031.5183 40.953494,1032.681 42.655546,1035.2061 44.357599,1037.7312 39.125145,1034.5474 C 36.247296,1032.7963 33.062339,1030.187 32.047462,1028.749 L 30.202233,1026.1344 31.694354,1023.905 33.186475,1021.6756 27.134453,1013.1002 21.082432,1004.5248 18.481957,1005.1838 15.881482,1005.8427 14.234765,1003.5094 C 13.329071,1002.2261 11.886444,998.61707 11.028926,995.48939 L 9.4698047,989.8027 41.297235,967.3407 73.124666,944.87869 75.354066,946.37081 77.583466,947.86293 79.483809,946.52178 81.384153,945.18062 85.235251,950.63742 89.086349,956.09421 84.993753,958.98253 80.901157,961.87086 82.345319,963.91715 83.789481,965.96345 91.292573,960.66819 98.795665,955.37293 101.2026,958.78343 z M 105.45352,979.28559 109.30461,984.74238 107.25832,986.18654 105.21202,987.6307 106.65618,989.677 108.10034,991.7233 93.963225,1001.3734 79.82611,1011.0235 83.871448,1007.3443 87.916786,1003.6651 87.015012,1002.3873 86.113237,1001.1095 76.396807,1007.9669 66.680379,1014.8242 66.917005,1011.8026 67.15363,1008.7811 70.306517,1007.5987 73.459405,1006.4163 72.775464,1003.7171 72.091524,1001.0179 75.494003,994.41378 78.896482,987.80969 82.94707,984.95101 86.997657,982.09234 85.072108,979.36394 83.146559,976.63554 85.874956,974.70999 88.603353,972.78445 91.010289,976.19494 93.417226,979.60544 97.509821,976.71711 101.60242,973.82879 105.45352,979.28559 z M 61.650862,1004.877 63.056741,1005.1195 60.366019,1006.8571 57.675296,1008.5947 58.960139,1006.6146 60.244982,1004.6344 61.650862,1004.877 z M 59.175477,1000.5852 60.676459,1002.712 59.312261,1003.6748 C 58.561951,1004.2043 57.540383,1004.0599 57.042108,1003.3539 56.543832,1002.6479 56.48228,1001.2575 56.905324,1000.2643 L 57.674496,998.45841 59.175477,1000.5852 z M 67.441999,1019.0552 68.993314,1019.3228 67.174383,1020.6065 65.355452,1021.8902 65.623067,1020.3389 65.890684,1018.7876 67.441999,1019.0552 z M 46.707244,998.26502 52.002503,1005.7681 48.786562,1002.4176 C 47.017794,1000.5749 44.634927,997.1985 43.491302,994.91455 L 41.411984,990.76192 46.707244,998.26502 z"
             style="fill:#333333" />
          <path
             inkscape:connector-curvature="0"
             id="path6510"
             d="M 101.2026,958.78343 103.60954,962.19393 101.56324,963.63809 99.516942,965.08225 98.72513,963.23635 97.933317,961.39046 88.528405,967.37041 C 83.355704,970.65939 76.380053,974.45778 73.026957,975.81128 L 66.930422,978.2722 72.631554,974.04338 78.332686,969.81455 77.369912,968.45035 76.407137,967.08615 71.905282,970.26331 67.403427,973.44046 65.21679,973.0931 63.030154,972.74574 55.26495,977.65546 47.499749,982.56518 48.745653,985.32306 49.991557,988.08095 45.867732,987.57954 41.743906,987.07814 41.126256,984.64055 40.508606,982.20296 46.046811,978.29441 51.585018,974.38585 49.986301,974.11006 C 49.107005,973.95837 47.187268,974.38736 45.720217,975.06336 44.253166,975.73936 40.178234,977.77013 36.664814,979.57617 L 30.276774,982.85989 27.498407,986.09022 24.72004,989.32055 26.216658,993.1945 27.713277,997.06844 26.31093,999.16371 24.908581,1001.259 31.678219,1010.8512 38.447857,1020.4434 39.841303,1019.46 C 40.607698,1018.9191 42.979729,1019.4959 45.112484,1020.7418 L 48.990221,1023.0071 55.364669,1021.5758 61.739118,1020.1445 57.792101,1023.2391 53.845084,1026.3337 57.99906,1024.9802 62.153036,1023.6268 55.065677,1028.6947 47.97832,1033.7627 47.221721,1032.0591 46.465124,1030.3555 43.709309,1031.5183 40.953494,1032.681 42.655546,1035.2061 44.357599,1037.7312 39.125145,1034.5474 C 36.247296,1032.7963 33.062339,1030.187 32.047462,1028.749 L 30.202233,1026.1344 31.694354,1023.905 33.186475,1021.6756 27.134453,1013.1002 21.082432,1004.5248 18.481957,1005.1838 15.881482,1005.8427 14.234765,1003.5094 C 13.329071,1002.2261 11.886444,998.61707 11.028926,995.48939 L 9.4698047,989.8027 41.297235,967.3407 73.124666,944.87869 75.354066,946.37081 77.583466,947.86293 79.483809,946.52178 81.384153,945.18062 85.235251,950.63742 89.086349,956.09421 84.993753,958.98253 80.901157,961.87086 82.345319,963.91715 83.789481,965.96345 91.292573,960.66819 98.795665,955.37293 101.2026,958.78343 z M 105.45352,979.28559 109.30461,984.74238 107.25832,986.18654 105.21202,987.6307 106.65618,989.677 108.10034,991.7233 96.05192,999.98933 84.003499,1008.2554 85.950548,1005.9466 C 87.021425,1004.6768 87.496115,1003.069 87.005417,1002.3737 L 86.113237,1001.1095 76.396807,1007.9669 66.680379,1014.8242 66.917005,1011.8026 67.15363,1008.7811 70.306517,1007.5987 73.459405,1006.4163 72.775464,1003.7171 72.091524,1001.0179 75.494003,994.41378 78.896482,987.80969 82.94707,984.95101 86.997657,982.09234 85.072108,979.36394 83.146559,976.63554 85.874956,974.70999 88.603353,972.78445 91.010289,976.19494 93.417226,979.60544 97.509821,976.71711 101.60242,973.82879 105.45352,979.28559 z M 82.448183,1008.4647 83.999498,1008.7323 82.180567,1010.016 80.361636,1011.2997 80.629251,1009.7484 80.896868,1008.1971 82.448183,1008.4647 z M 61.650862,1004.877 63.056741,1005.1195 60.366019,1006.8571 57.675296,1008.5947 58.960139,1006.6146 60.244982,1004.6344 61.650862,1004.877 z M 59.175477,1000.5852 60.676459,1002.712 59.312261,1003.6748 C 58.561951,1004.2043 57.540383,1004.0599 57.042108,1003.3539 56.543832,1002.6479 56.48228,1001.2575 56.905324,1000.2643 L 57.674496,998.45841 59.175477,1000.5852 z M 67.441999,1019.0552 68.993314,1019.3228 67.174383,1020.6065 65.355452,1021.8902 65.623067,1020.3389 65.890684,1018.7876 67.441999,1019.0552 z M 46.707244,998.26502 52.002503,1005.7681 48.786562,1002.4176 C 47.017794,1000.5749 44.634927,997.1985 43.491302,994.91455 L 41.411984,990.76192 46.707244,998.26502 z"
             style="fill:#2d2d2d" />
          <path
             inkscape:connector-curvature="0"
             id="path6508"
             d="M 101.2026,958.78343 103.60954,962.19393 102.39129,963.05369 C 101.72126,963.52657 100.31845,963.34149 99.273936,962.6424 L 97.374823,961.37134 87.765411,967.63959 C 82.480233,971.08713 75.631071,974.891 72.545049,976.09263 L 66.9341,978.27742 72.633393,974.04598 78.332686,969.81455 77.369912,968.45035 76.407137,967.08615 71.905282,970.26331 67.403427,973.44046 65.21679,973.0931 63.030154,972.74574 55.26495,977.65546 47.499749,982.56518 48.745653,985.32306 49.991557,988.08095 45.867732,987.57954 41.743906,987.07814 41.126256,984.64055 40.508606,982.20296 46.046811,978.29441 51.585018,974.38585 49.986301,974.11006 C 49.107005,973.95837 47.220907,974.43502 45.79497,975.16928 44.369032,975.90354 40.665151,977.47005 37.564123,978.65042 L 31.925889,980.79654 28.329212,985.07472 24.732536,989.35289 26.222907,993.21067 27.713277,997.06844 26.31093,999.16371 24.908581,1001.259 31.196832,1010.1691 37.485083,1019.0792 42.443046,1020.1784 C 45.169926,1020.783 49.158942,1021.6463 51.307526,1022.097 L 55.214044,1022.9165 46.936119,1028.7585 38.658194,1034.6006 36.307236,1033.0272 C 35.014209,1032.1617 33.111618,1030.2568 32.079256,1028.794 L 30.202233,1026.1344 31.694354,1023.905 33.186475,1021.6756 27.134453,1013.1002 21.082432,1004.5248 18.481957,1005.1838 15.881482,1005.8427 14.234765,1003.5094 C 13.329071,1002.2261 11.886444,998.61707 11.028926,995.48939 L 9.4698047,989.8027 41.297235,967.3407 73.124666,944.87869 75.354066,946.37081 77.583466,947.86293 79.483809,946.52178 81.384153,945.18062 85.235251,950.63742 89.086349,956.09421 84.993753,958.98253 80.901157,961.87086 82.345319,963.91715 83.789481,965.96345 91.292573,960.66819 98.795665,955.37293 101.2026,958.78343 z M 105.45352,979.28559 109.30461,984.74238 107.25832,986.18654 105.21202,987.6307 106.65618,989.677 108.10034,991.7233 102.74099,995.50563 97.381637,999.28796 93.891178,998.68582 90.400718,998.08368 78.540549,1006.4539 66.680379,1014.8242 66.917005,1011.8026 67.15363,1008.7811 70.306517,1007.5987 73.459405,1006.4163 72.775464,1003.7171 72.091524,1001.0179 75.494003,994.41378 78.896482,987.80969 82.94707,984.95101 86.997657,982.09234 85.072108,979.36394 83.146559,976.63554 85.874956,974.70999 88.603353,972.78445 91.010289,976.19494 93.417226,979.60544 97.509821,976.71711 101.60242,973.82879 105.45352,979.28559 z M 61.650862,1004.877 63.056741,1005.1195 60.366019,1006.8571 57.675296,1008.5947 58.960139,1006.6146 60.244982,1004.6344 61.650862,1004.877 z M 59.175477,1000.5852 60.676459,1002.712 59.312261,1003.6748 C 58.561951,1004.2043 57.540383,1004.0599 57.042108,1003.3539 56.543832,1002.6479 56.48228,1001.2575 56.905324,1000.2643 L 57.674496,998.45841 59.175477,1000.5852 z M 46.707244,998.26502 52.002503,1005.7681 48.786562,1002.4176 C 47.017794,1000.5749 44.634927,997.1985 43.491302,994.91455 L 41.411984,990.76192 46.707244,998.26502 z"
             style="fill:#282828" />
          <path
             inkscape:connector-curvature="0"
             id="path6506"
             d="M 101.28565,958.90111 103.90797,962.61679 99.7815,962.11507 95.655025,961.61334 93.224921,963.68389 C 91.888363,964.82269 87.707881,967.78731 83.93496,970.27193 80.162041,972.75655 77.169849,974.38071 77.285644,973.88117 77.401441,973.38164 82.258793,968.97074 88.079759,964.07918 L 98.663334,955.18543 101.28565,958.90111 z M 106.04205,980.11951 109.30461,984.74238 106.57622,986.66793 103.84782,988.59348 105.29018,990.63723 106.73255,992.68098 100.69088,996.26674 94.64922,999.85251 92.995942,998.63571 91.342664,997.41891 79.746976,1005.6025 68.151288,1013.7861 67.52936,1011.6704 66.907432,1009.5547 70.013755,1007.9707 73.120078,1006.3866 73.173548,1002.5819 C 73.202957,1000.4893 74.729992,996.14907 76.566961,992.9369 L 79.906904,987.09659 83.452281,984.59446 86.997657,982.09234 85.072108,979.36394 83.146559,976.63554 85.192857,975.19138 87.239155,973.74722 89.602465,977.0959 91.965775,980.44458 97.372631,977.97061 102.77949,975.49664 106.04205,980.11951 z M 84.593401,949.72795 C 86.358488,952.22898 87.682223,954.97337 87.535033,955.82659 87.387845,956.67982 85.528065,958.60545 83.402188,960.10577 L 79.536959,962.83363 80.98112,964.87993 82.425282,966.92623 80.378984,968.37039 78.332686,969.81455 77.369912,968.45035 76.407137,967.08615 71.632442,970.45586 66.857747,973.82557 65.894973,972.46138 64.932198,971.09718 57.429106,976.39244 49.926014,981.6877 49.075529,980.48261 C 48.607763,979.81981 49.276596,978.0302 50.561827,976.50571 L 52.898609,973.73391 50.848047,972.86052 48.797487,971.98715 47.388408,974.09247 45.979331,976.19779 39.83279,977.25036 33.68625,978.30292 29.414991,982.70092 25.143732,987.09891 25.904151,992.60161 C 26.322383,995.6281 26.066448,998.52643 25.335406,999.04236 L 24.00624,999.98041 30.734656,1009.5142 37.463072,1019.048 41.931665,1020.3122 C 44.389391,1021.0074 48.27595,1021.9536 50.568463,1022.4148 L 54.736669,1023.2534 46.577468,1029.0117 38.418267,1034.77 34.952279,1031.7889 31.48629,1028.8079 32.573943,1025.5783 33.661597,1022.3488 27.269008,1013.2909 20.876419,1004.2329 19.538211,1005.1774 18.200003,1006.1218 15.077659,1003.4363 11.955314,1000.7508 11.206454,995.33177 10.457593,989.91272 41.74163,967.41645 73.025667,944.92018 74.476512,946.97595 75.927359,949.03172 78.655756,947.10617 81.384153,945.18062 84.593401,949.72795 z M 47.262464,981.01289 C 47.606873,981.61284 48.23576,983.52814 48.659991,985.2691 L 49.43132,988.43449 45.164747,987.47744 40.898171,986.52038 42.514594,984.10526 C 43.403627,982.77694 44.694699,981.29232 45.383641,980.80611 46.072585,980.31989 46.918056,980.41294 47.262464,981.01289 z M 58.75091,999.98363 C 59.280436,1000.7339 59.063565,1001.8066 58.268975,1002.3674 L 56.824266,1003.387 56.704612,1001.4278 C 56.638803,1000.3502 56.855673,999.27751 57.186547,999.044 57.517421,998.81048 58.221384,999.23332 58.75091,999.98363 z M 43.264947,992.51971 44.548646,994.33864 42.997331,994.07103 41.446016,993.80341 41.713631,992.2521 41.981248,990.70078 43.264947,992.51971 z"
             style="fill:#202020" />
          <path
             inkscape:connector-curvature="0"
             id="path6504"
             d="M 100.59524,957.92284 102.64676,960.82973 101.36308,961.73568 C 100.65705,962.23396 99.374049,962.34122 98.511967,961.97404 L 96.944546,961.30644 89.058257,966.60413 C 84.720798,969.51787 80.647439,971.81135 80.006347,971.70075 79.365257,971.59016 81.24036,969.79603 84.173242,967.71379 87.106126,965.63156 91.5393,961.92272 94.02474,959.47193 L 98.543722,955.01594 100.59524,957.92284 z M 105.52517,979.89793 108.68585,983.43938 106.37913,986.17554 104.0724,988.91169 105.40247,990.79634 106.73255,992.68098 100.69088,996.26674 94.64922,999.85251 92.995942,998.63571 91.342664,997.41891 79.746976,1005.6025 68.151288,1013.7861 67.52936,1011.6704 66.907432,1009.5547 70.013755,1007.9707 73.120078,1006.3866 73.234096,1002.6324 C 73.296805,1000.5676 74.171998,997.14725 75.178967,995.03156 L 77.009821,991.18486 82.485126,987.3207 87.960431,983.45654 85.553495,980.04604 83.146559,976.63554 85.192857,975.19138 87.239155,973.74722 90.066479,977.75338 92.893802,981.75954 97.629141,979.05801 102.36448,976.35648 105.52517,979.89793 z M 85.205034,950.5946 88.123574,954.73001 84.486041,957.53919 C 82.485398,959.08424 80.336785,960.60061 79.711346,960.9089 L 78.574184,961.46943 80.499733,964.19783 82.425282,966.92623 80.378984,968.37039 78.332686,969.81455 76.888525,967.76825 75.444363,965.72195 70.836707,968.97378 66.22905,972.2256 63.086612,971.37785 59.944175,970.5301 56.846671,972.71615 53.749168,974.90219 51.351144,973.29721 48.953123,971.69223 46.932056,974.08955 44.910988,976.48686 41.059654,976.42215 37.208321,976.35743 31.950256,980.06828 26.692191,983.77912 26.00003,989.18223 C 25.619341,992.15393 25.213341,996.08025 25.097807,997.90739 L 24.887744,1001.2295 31.28856,1010.2991 37.689375,1019.3687 45.645555,1021.7115 53.601736,1024.0543 46.010001,1029.4121 38.418267,1034.77 34.952279,1031.7889 31.48629,1028.8079 32.573943,1025.5783 33.661597,1022.3488 26.890627,1012.7547 20.119657,1003.1606 17.519182,1003.8196 14.918708,1004.4785 13.636272,1002.6613 C 12.930933,1001.6619 11.981408,998.72091 11.526219,996.12576 L 10.6986,991.40732 15.83694,987.03103 C 18.663027,984.62408 32.513118,974.52321 46.614917,964.58467 L 72.254554,946.5146 74.261538,947.29092 C 75.36538,947.7179 77.622567,947.70543 79.277509,947.26322 L 82.286494,946.45919 85.205034,950.5946 z M 61.107219,972.43418 62.658533,972.7018 60.839602,973.9855 59.020671,975.2692 59.288286,973.71788 59.555903,972.16657 61.107219,972.43418 z M 47.197616,983.61325 C 47.727142,984.36355 47.582732,985.38512 46.876703,985.8834 46.170675,986.38167 44.780363,986.44323 43.78712,986.02018 L 41.981224,985.25101 44.108033,983.75003 46.234842,982.24905 47.197616,983.61325 z"
             style="fill:#1f1f1f" />
          <path
             inkscape:connector-curvature="0"
             id="path6502"
             d="M 100.72121,958.10133 102.64676,960.82973 101.494,961.64328 C 100.85998,962.09074 98.363612,962.01323 95.946519,961.47104 L 91.551805,960.48524 95.173734,957.92909 98.795665,955.37293 100.72121,958.10133 z M 105.52517,979.89793 108.68585,983.43938 106.43871,986.10486 104.19156,988.77035 105.29475,991.21254 106.39793,993.65473 102.57316,992.9949 98.748381,992.33506 83.663874,1002.3986 68.579367,1012.4621 68.314468,1010.6389 68.049569,1008.8157 70.584823,1007.6011 73.120078,1006.3866 73.234096,1002.6324 C 73.296805,1000.5676 74.171998,997.14725 75.178967,995.03156 L 77.009821,991.18486 82.485126,987.3207 87.960431,983.45654 85.553495,980.04604 83.146559,976.63554 85.192857,975.19138 87.239155,973.74722 90.066479,977.75338 92.893802,981.75954 97.629141,979.05801 102.36448,976.35648 105.52517,979.89793 z M 97.134516,985.83789 95.5832,985.57027 95.315583,987.12159 95.047968,988.6729 96.866899,987.38921 98.68583,986.10551 97.134516,985.83789 z M 85.145116,950.5097 88.123574,954.73001 83.348879,958.09972 78.574184,961.46943 80.499733,964.19783 82.425282,966.92623 80.378984,968.37039 78.332686,969.81455 76.888525,967.76825 75.444363,965.72195 70.836707,968.97378 66.22905,972.2256 63.086612,971.37785 59.944175,970.5301 56.846671,972.71615 53.749168,974.90219 51.351144,973.29721 48.953123,971.69223 46.932056,974.08955 44.910988,976.48686 41.059654,976.42215 37.208321,976.35743 31.950256,980.06828 26.692191,983.77912 26.00003,989.18223 C 25.619341,992.15393 25.213341,996.08025 25.097807,997.90739 L 24.887744,1001.2295 31.28856,1010.2991 37.689375,1019.3687 45.645555,1021.7115 53.601736,1024.0543 46.010001,1029.4121 38.418267,1034.77 34.952279,1031.7889 31.48629,1028.8079 32.573943,1025.5783 33.661597,1022.3488 26.890627,1012.7547 20.119657,1003.1606 17.519182,1003.8196 14.918708,1004.4785 13.636272,1002.6613 C 12.930933,1001.6619 11.955083,998.65033 11.467718,995.96892 L 10.581598,991.09362 15.3978,987.78272 C 18.046711,985.96173 27.121269,980.35409 35.563484,975.32131 L 50.912968,966.1708 56.755292,959.26856 62.597616,952.36632 68.422764,949.50918 74.24791,946.65203 74.975345,947.68277 C 75.375434,948.24967 77.157153,948.16808 78.934719,947.50144 L 82.166659,946.28939 85.145116,950.5097 z M 76.916252,957.18972 75.364936,956.9221 75.097319,958.47342 74.829704,960.02473 76.648635,958.74103 78.467566,957.45734 76.916252,957.18972 z M 92.342697,963.60404 93.112146,964.69431 87.638562,967.79768 C 84.628091,969.50453 81.400069,971.12031 80.465178,971.38829 79.530289,971.65628 81.647149,969.76914 85.169313,967.19466 L 91.573248,962.51378 92.342697,963.60404 z M 61.107219,972.43418 62.658533,972.7018 60.839602,973.9855 59.020671,975.2692 59.288286,973.71788 59.555903,972.16657 61.107219,972.43418 z M 47.197616,983.61325 C 47.727142,984.36355 47.582732,985.38512 46.876703,985.8834 46.170675,986.38167 44.780363,986.44323 43.78712,986.02018 L 41.981224,985.25101 44.108033,983.75003 46.234842,982.24905 47.197616,983.61325 z"
             style="fill:#1b1b1b" />
          <path
             inkscape:connector-curvature="0"
             id="path6500"
             d="M 100.72121,958.10133 C 101.78027,959.60195 102.31415,961.06447 101.90762,961.35137 101.50109,961.63828 98.984119,961.57531 96.314341,961.21145 L 91.460202,960.54989 95.127934,957.96141 98.795665,955.37293 100.72121,958.10133 z M 105.52517,979.89793 108.68585,983.43938 106.37913,986.17554 104.0724,988.91169 105.60158,991.17055 107.13076,993.42941 103.70087,992.34369 100.27099,991.25797 84.760742,1001.6232 69.250498,1011.9885 68.650034,1010.4021 68.049569,1008.8157 70.584823,1007.6011 73.120078,1006.3866 73.234096,1002.6324 C 73.296805,1000.5676 74.171998,997.14725 75.178967,995.03156 L 77.009821,991.18486 82.485126,987.3207 87.960431,983.45654 85.553495,980.04604 83.146559,976.63554 85.192857,975.19138 87.239155,973.74722 90.066479,977.75338 92.893802,981.75954 97.629141,979.05801 102.36448,976.35648 105.52517,979.89793 z M 97.268324,985.06223 C 96.738798,984.31192 95.69166,984.13128 94.94135,984.66081 94.191041,985.19033 94.0104,986.23747 94.539926,986.98778 95.069452,987.73809 96.11659,987.91873 96.866899,987.38921 97.617209,986.85968 97.797849,985.81254 97.268324,985.06223 z M 85.145116,950.5097 88.123574,954.73001 83.348879,958.09972 78.574184,961.46943 80.499733,964.19783 82.425282,966.92623 80.378984,968.37039 78.332686,969.81455 76.888525,967.76825 75.444363,965.72195 70.836707,968.97378 66.22905,972.2256 63.086612,971.37785 59.944175,970.5301 56.846671,972.71615 53.749168,974.90219 51.351144,973.29721 48.953123,971.69223 46.932056,974.08955 44.910988,976.48686 41.059654,976.42215 37.208321,976.35743 31.950256,980.06828 26.692191,983.77912 26.00003,989.18223 C 25.619341,992.15393 25.213341,996.08025 25.097807,997.90739 L 24.887744,1001.2295 31.28856,1010.2991 37.689375,1019.3687 45.645555,1021.7115 53.601736,1024.0543 46.010001,1029.4121 38.418267,1034.77 34.952279,1031.7889 31.48629,1028.8079 32.573943,1025.5783 33.661597,1022.3488 26.890627,1012.7547 20.119657,1003.1606 17.519182,1003.8196 14.918708,1004.4785 13.636272,1002.6613 C 12.930933,1001.6619 11.924421,998.60688 11.399578,995.87237 L 10.44532,990.90052 17.819196,986.87006 C 21.874828,984.6533 32.632692,977.74397 41.72556,971.51599 L 58.258049,960.19239 60.129336,956.42576 62.000623,952.65914 68.124267,949.65559 74.24791,946.65203 74.975345,947.68277 C 75.375434,948.24967 77.157153,948.16808 78.934719,947.50144 L 82.166659,946.28939 85.145116,950.5097 z M 78.069654,957.85877 C 77.508877,957.06418 76.43617,956.84731 75.685861,957.37684 74.935552,957.90636 74.512717,958.61033 74.746229,958.9412 74.979742,959.27207 76.052448,959.48894 77.130023,959.42313 L 79.089249,959.30348 78.069654,957.85877 z M 92.342697,963.60404 93.112146,964.69431 87.638562,967.79768 C 84.628091,969.50453 81.400069,971.12031 80.465178,971.38829 79.530289,971.65628 81.647149,969.76914 85.169313,967.19466 L 91.573248,962.51378 92.342697,963.60404 z M 61.107219,972.43418 62.658533,972.7018 60.839602,973.9855 59.020671,975.2692 59.288286,973.71788 59.555903,972.16657 61.107219,972.43418 z M 47.197616,983.61325 C 47.727142,984.36355 47.582732,985.38512 46.876703,985.8834 46.170675,986.38167 44.780363,986.44323 43.78712,986.02018 L 41.981224,985.25101 44.108033,983.75003 46.234842,982.24905 47.197616,983.61325 z"
             style="fill:#1a1a1a" />
          <path
             inkscape:connector-curvature="0"
             id="path6498"
             d="M 100.72121,958.10133 C 101.78027,959.60195 102.31415,961.06447 101.90762,961.35137 101.50109,961.63828 98.984119,961.57531 96.314341,961.21145 L 91.460202,960.54989 95.127934,957.96141 98.795665,955.37293 100.72121,958.10133 z M 105.52517,979.89793 108.68585,983.43938 106.37913,986.17554 104.0724,988.91169 105.60158,991.17055 107.13076,993.42941 103.70087,992.34369 100.27099,991.25797 84.760742,1001.6232 69.250498,1011.9885 68.650034,1010.4021 68.049569,1008.8157 70.584823,1007.6011 73.120078,1006.3866 73.234096,1002.6324 C 73.296805,1000.5676 74.171998,997.14725 75.178967,995.03156 L 77.009821,991.18486 82.485126,987.3207 87.960431,983.45654 85.553495,980.04604 83.146559,976.63554 85.192857,975.19138 87.239155,973.74722 90.066479,977.75338 92.893802,981.75954 97.629141,979.05801 102.36448,976.35648 105.52517,979.89793 z M 97.268324,985.06223 C 96.738798,984.31192 95.69166,984.13128 94.94135,984.66081 94.191041,985.19033 94.0104,986.23747 94.539926,986.98778 95.069452,987.73809 96.11659,987.91873 96.866899,987.38921 97.617209,986.85968 97.797849,985.81254 97.268324,985.06223 z M 85.145116,950.5097 88.123574,954.73001 83.348879,958.09972 78.574184,961.46943 80.499733,964.19783 82.425282,966.92623 80.378984,968.37039 78.332686,969.81455 76.888525,967.76825 75.444363,965.72195 70.836707,968.97378 66.22905,972.2256 63.086612,971.37785 59.944175,970.5301 56.846671,972.71615 53.749168,974.90219 51.351144,973.29721 48.953123,971.69223 46.932056,974.08955 44.910988,976.48686 41.059654,976.42215 37.208321,976.35743 31.950256,980.06828 26.692191,983.77912 26.00003,989.18223 C 25.619341,992.15393 25.213341,996.08025 25.097807,997.90739 L 24.887744,1001.2295 31.28856,1010.2991 37.689375,1019.3687 45.645555,1021.7115 53.601736,1024.0543 46.010001,1029.4121 38.418267,1034.77 34.952279,1031.7889 31.48629,1028.8079 32.573943,1025.5783 33.661597,1022.3488 26.890627,1012.7547 20.119657,1003.1606 17.519182,1003.8196 14.918708,1004.4785 13.636272,1002.6613 C 12.930933,1001.6619 11.929823,998.61453 11.411584,995.88938 L 10.469332,990.93455 18.489157,986.37147 C 22.900061,983.86178 32.405074,977.78342 39.611407,972.864 46.817742,967.94459 57.439413,959.86496 63.215122,954.90927 L 73.71641,945.89893 74.709594,947.30621 75.702779,948.7135 78.934719,947.50144 82.166659,946.28939 85.145116,950.5097 z M 78.069654,957.85877 C 77.508877,957.06418 76.43617,956.84731 75.685861,957.37684 74.935552,957.90636 74.512717,958.61033 74.746229,958.9412 74.979742,959.27207 76.052448,959.48894 77.130023,959.42313 L 79.089249,959.30348 78.069654,957.85877 z M 92.342697,963.60404 93.112146,964.69431 87.638562,967.79768 C 84.628091,969.50453 81.400069,971.12031 80.465178,971.38829 79.530289,971.65628 81.647149,969.76914 85.169313,967.19466 L 91.573248,962.51378 92.342697,963.60404 z M 61.107219,972.43418 62.658533,972.7018 60.839602,973.9855 59.020671,975.2692 59.288286,973.71788 59.555903,972.16657 61.107219,972.43418 z M 47.197616,983.61325 C 47.727142,984.36355 47.582732,985.38512 46.876703,985.8834 46.170675,986.38167 44.780363,986.44323 43.78712,986.02018 L 41.981224,985.25101 44.108033,983.75003 46.234842,982.24905 47.197616,983.61325 z"
             style="fill:#171717" />
          <path
             inkscape:connector-curvature="0"
             id="path6496"
             d="M 100.74341,958.13278 102.69115,960.89262 97.703571,961.06492 C 94.960401,961.15968 92.549194,961.00087 92.345331,960.71201 92.141469,960.42315 93.509396,959.10368 95.385169,957.77987 L 98.795665,955.37293 100.74341,958.13278 z M 105.52517,979.89793 108.68585,983.43938 106.37913,986.17554 104.0724,988.91169 105.60158,991.17055 107.13076,993.42941 103.70087,992.34369 100.27099,991.25797 84.760742,1001.6232 69.250498,1011.9885 68.650034,1010.4021 68.049569,1008.8157 70.584823,1007.6011 73.120078,1006.3866 73.234096,1002.6324 C 73.296805,1000.5676 74.171998,997.14725 75.178967,995.03156 L 77.009821,991.18486 82.485126,987.3207 87.960431,983.45654 85.553495,980.04604 83.146559,976.63554 85.192857,975.19138 87.239155,973.74722 90.066479,977.75338 92.893802,981.75954 97.629141,979.05801 102.36448,976.35648 105.52517,979.89793 z M 97.268324,985.06223 C 96.738798,984.31192 95.69166,984.13128 94.94135,984.66081 94.191041,985.19033 94.0104,986.23747 94.539926,986.98778 95.069452,987.73809 96.11659,987.91873 96.866899,987.38921 97.617209,986.85968 97.797849,985.81254 97.268324,985.06223 z M 85.145116,950.5097 88.123574,954.73001 83.348879,958.09972 78.574184,961.46943 80.499733,964.19783 82.425282,966.92623 80.378984,968.37039 78.332686,969.81455 76.888525,967.76825 75.444363,965.72195 70.836707,968.97378 66.22905,972.2256 63.086612,971.37785 59.944175,970.5301 56.846671,972.71615 53.749168,974.90219 51.351144,973.29721 48.953123,971.69223 46.908329,974.11769 44.863536,976.54315 40.390295,976.39503 35.917052,976.2469 47.071834,968.19738 C 53.206963,963.77014 61.714314,956.94538 65.977058,953.03125 L 73.727503,945.91464 74.715141,947.31407 75.702779,948.7135 78.934719,947.50144 82.166659,946.28939 85.145116,950.5097 z M 78.069654,957.85877 C 77.508877,957.06418 76.43617,956.84731 75.685861,957.37684 74.935552,957.90636 74.512717,958.61033 74.746229,958.9412 74.979742,959.27207 76.052448,959.48894 77.130023,959.42313 L 79.089249,959.30348 78.069654,957.85877 z M 92.342697,963.60404 93.112146,964.69431 87.638562,967.79768 C 84.628091,969.50453 81.400069,971.12031 80.465178,971.38829 79.530289,971.65628 81.647149,969.76914 85.169313,967.19466 L 91.573248,962.51378 92.342697,963.60404 z M 61.107219,972.43418 62.658533,972.7018 60.839602,973.9855 59.020671,975.2692 59.288286,973.71788 59.555903,972.16657 61.107219,972.43418 z M 47.197616,983.61325 C 47.727142,984.36355 47.582732,985.38512 46.876703,985.8834 46.170675,986.38167 44.780363,986.44323 43.78712,986.02018 L 41.981224,985.25101 44.108033,983.75003 46.234842,982.24905 47.197616,983.61325 z M 34.540475,977.50316 C 35.044087,977.55314 33.484247,978.98567 31.074162,980.68658 L 26.692191,983.77912 26.00003,989.18223 C 25.619341,992.15393 25.213341,996.08025 25.097807,997.90739 L 24.887744,1001.2295 31.28856,1010.2991 37.689375,1019.3687 45.645555,1021.7115 53.601736,1024.0543 46.010001,1029.4121 38.418267,1034.77 34.952279,1031.7889 31.48629,1028.8079 32.573943,1025.5783 33.661597,1022.3488 26.890627,1012.7547 20.119657,1003.1606 17.519182,1003.8196 14.918708,1004.4785 13.636272,1002.6613 C 12.930933,1001.6619 11.97362,998.67659 11.508911,996.02728 L 10.663986,991.21036 22.144401,984.31133 C 28.458629,980.51686 34.036862,977.45318 34.540475,977.50316 z"
             style="fill:#171717" />
          <path
             inkscape:connector-curvature="0"
             id="path6494"
             d="M 101.32049,958.95047 102.88254,961.1638 99.205574,961.02135 C 97.183246,960.943 95.15023,960.8857 94.687763,960.89402 94.225295,960.90234 95.177007,959.97045 96.802676,958.82314 L 99.75844,956.73713 101.32049,958.95047 z M 104.5707,980.93046 107.94041,985.70515 106.0078,987.06909 C 104.94486,987.81925 104.25864,989.45311 104.48287,990.69988 L 104.89056,992.96675 102.89131,991.82312 100.89205,990.67949 86.762164,1000.6516 72.632273,1010.6237 70.826377,1009.8545 69.020481,1009.0853 71.069935,1007.6389 73.119388,1006.1925 73.23375,1002.5354 C 73.29665,1000.524 74.171998,997.14725 75.178967,995.03156 L 77.009821,991.18486 82.485126,987.3207 87.960431,983.45654 85.553495,980.04604 83.146559,976.63554 85.192857,975.19138 87.239155,973.74722 90.127478,977.83982 93.015801,981.93241 97.108397,979.04409 101.20099,976.15576 104.5707,980.93046 z M 97.268324,985.06223 C 96.738798,984.31192 95.69166,984.13128 94.94135,984.66081 94.191041,985.19033 94.0104,986.23747 94.539926,986.98778 95.069452,987.73809 96.11659,987.91873 96.866899,987.38921 97.617209,986.85968 97.797849,985.81254 97.268324,985.06223 z M 89.469213,964.60007 92.955897,963.02503 86.817003,967.35752 80.67811,971.69 83.33032,968.93256 C 84.789035,967.41596 87.551538,965.46634 89.469213,964.60007 z M 83.871052,951.60019 86.759376,955.69279 82.66678,958.58111 78.574184,961.46943 80.499733,964.19783 82.425282,966.92623 80.378984,968.37039 78.332686,969.81455 76.888525,967.76825 75.444363,965.72195 70.836707,968.97378 66.22905,972.2256 63.086612,971.37785 59.944175,970.5301 56.846671,972.71615 53.749168,974.90219 51.519768,973.41007 49.290368,971.91795 45.917567,974.29828 42.544766,976.67861 40.73887,975.90944 38.932975,975.14027 46.783965,969.44312 C 51.102009,966.30969 55.681389,962.62252 56.960365,961.24941 58.239342,959.8763 62.535164,955.86426 66.50664,952.33375 L 73.727503,945.91464 75.308818,948.15528 76.890133,950.39592 78.936431,948.95176 80.982729,947.50759 83.871052,951.60019 z M 78.069654,957.85877 C 77.508877,957.06418 76.43617,956.84731 75.685861,957.37684 74.935552,957.90636 74.512717,958.61033 74.746229,958.9412 74.979742,959.27207 76.052448,959.48894 77.130023,959.42313 L 79.089249,959.30348 78.069654,957.85877 z M 46.24647,983.04979 47.652349,983.29232 44.961628,985.02994 42.270904,986.76756 43.555747,984.78741 44.840591,982.80727 46.24647,983.04979 z M 23.745208,983.68381 35.414173,977.05194 31.053182,980.41554 26.692191,983.77912 26.00003,989.18223 C 25.619341,992.15393 25.203724,996.15012 25.076435,998.06265 L 24.845002,1001.54 30.60638,1010.2048 36.36776,1018.8695 43.556812,1021.1298 C 47.510791,1022.373 51.029906,1023.7926 51.377068,1024.2845 L 52.008272,1025.1789 45.21327,1029.9744 38.418267,1034.77 34.906947,1031.7499 31.395624,1028.7299 32.958724,1024.7009 34.521823,1020.672 28.415094,1012.0191 22.308366,1003.3662 18.549446,1003.8315 14.790526,1004.2969 13.169879,1001.9361 C 12.278523,1000.6377 11.66781,997.49192 11.812738,994.94552 L 12.076243,990.31568 23.745208,983.68381 z"
             style="fill:#141414" />
          <path
             inkscape:connector-curvature="0"
             id="path6492"
             d="M 101.2026,958.78343 C 101.99689,959.90889 102.41499,960.9933 102.1317,961.19323 101.84842,961.39315 100.20255,961.17524 98.474204,960.70898 L 95.331767,959.86123 97.545103,958.29918 99.75844,956.73713 101.2026,958.78343 z M 104.5707,980.93046 107.94041,985.70515 106.0078,987.06909 104.07519,988.43302 104.59057,990.62387 105.10596,992.81473 103.79479,991.18549 102.48362,989.55625 88.485841,999.4038 74.488064,1009.2514 71.508476,1009.3731 68.52889,1009.4948 70.824139,1007.8437 73.119388,1006.1925 73.23375,1002.5354 C 73.29665,1000.524 74.171998,997.14725 75.178967,995.03156 L 77.009821,991.18486 82.485126,987.3207 87.960431,983.45654 85.553495,980.04604 83.146559,976.63554 85.192857,975.19138 87.239155,973.74722 90.127478,977.83982 93.015801,981.93241 97.108397,979.04409 101.20099,976.15576 104.5707,980.93046 z M 97.806531,985.82484 96.305549,983.69803 94.94135,984.66081 C 94.191041,985.19033 93.984831,986.20124 94.483106,986.90727 94.981382,987.6133 96.270712,988.13711 97.348287,988.0713 L 99.307513,987.95165 97.806531,985.82484 z M 89.469213,964.60007 92.955897,963.02503 86.817003,967.35752 80.67811,971.69 83.33032,968.93256 C 84.789035,967.41596 87.551538,965.46634 89.469213,964.60007 z M 83.871052,951.60019 86.759376,955.69279 82.66678,958.58111 78.574184,961.46943 80.499733,964.19783 82.425282,966.92623 80.378984,968.37039 78.332686,969.81455 76.888525,967.76825 75.444363,965.72195 70.836707,968.97378 66.22905,972.2256 63.086612,971.37785 59.944175,970.5301 56.846671,972.71615 53.749168,974.90219 51.519768,973.41007 49.290368,971.91795 45.917567,974.29828 C 44.062526,975.60746 41.842822,976.37964 40.984891,976.01423 L 39.425015,975.34984 54.91524,963.34626 C 63.434863,956.7443 71.16829,950.14315 72.100631,948.67705 L 73.795797,946.01141 75.342965,948.20366 76.890133,950.39592 78.936431,948.95176 80.982729,947.50759 83.871052,951.60019 z M 78.012834,957.77826 C 77.483308,957.02795 76.43617,956.84731 75.685861,957.37684 74.935552,957.90636 74.754911,958.9535 75.284437,959.70381 75.813963,960.45412 76.861101,960.63476 77.61141,960.10523 78.361719,959.57571 78.54236,958.52857 78.012834,957.77826 z M 46.24647,983.04979 47.652349,983.29232 44.961628,985.02994 42.270904,986.76756 43.555747,984.78741 44.840591,982.80727 46.24647,983.04979 z M 26.556681,983.62963 C 26.805734,984.15069 26.628662,986.83176 26.16319,989.58755 25.697716,992.34335 25.210703,996.16001 25.080938,998.06903 L 24.845002,1001.54 30.60638,1010.2048 36.36776,1018.8695 43.556812,1021.1298 C 47.510791,1022.373 51.029906,1023.7926 51.377068,1024.2845 L 52.008272,1025.1789 45.21327,1029.9744 38.418267,1034.77 34.906947,1031.7499 31.395624,1028.7299 32.958724,1024.7009 34.521823,1020.672 28.012122,1011.4481 21.502423,1002.2242 18.270483,1003.4362 15.038543,1004.6483 13.293888,1002.1118 C 12.334328,1000.7168 11.665738,997.48899 11.808134,994.93899 L 12.067034,990.30263 19.085446,986.49243 C 22.945571,984.39683 26.307627,983.10856 26.556681,983.62963 z"
             style="fill:#0f0f0f" />
          <path
             inkscape:connector-curvature="0"
             id="path6490"
             d="M 101.2026,958.78343 C 101.99689,959.90889 102.41499,960.9933 102.1317,961.19323 101.84842,961.39315 100.20255,961.17524 98.474204,960.70898 L 95.331767,959.86123 97.545103,958.29918 99.75844,956.73713 101.2026,958.78343 z M 104.08932,980.24836 106.97764,984.34096 104.93134,985.78512 102.88504,987.22928 104.54901,989.63137 106.21297,992.03346 103.95116,991.10277 101.68934,990.17208 87.480054,998.63981 73.270772,1007.1075 74.56003,999.66576 75.849289,992.224 82.005215,987.25852 88.161143,982.29305 86.430832,978.91595 84.70052,975.53884 85.937667,974.66574 87.174815,973.79263 91.894298,981.70207 96.613783,989.61151 97.903828,988.70107 99.193872,987.79063 96.786936,984.38013 94.38,980.96964 97.790497,978.5627 101.20099,976.15576 104.08932,980.24836 z M 90.167109,964.14107 92.994755,963.08009 88.22006,966.4498 83.445365,969.81951 85.392414,967.51078 C 86.463291,966.24097 88.611904,964.72461 90.167109,964.14107 z M 83.871052,951.60019 86.759376,955.69279 83.348879,958.09972 79.938383,960.50666 78.012834,957.77826 76.087285,955.04986 74.671576,956.04899 73.255868,957.04812 77.764699,962.04072 82.27353,967.03332 81.131161,967.83954 C 80.502859,968.28296 78.985563,967.97431 77.759394,967.15364 L 75.529994,965.66152 70.879523,968.94356 66.22905,972.2256 63.086612,971.37785 59.944175,970.5301 57.52877,972.23476 55.113366,973.93941 52.883966,972.44729 50.654566,970.95517 46.973888,973.55279 C 44.949515,974.98148 43.377924,975.65933 43.481463,975.05914 43.585001,974.45895 50.11512,968.83475 57.992838,962.56093 L 72.315959,951.15399 71.908369,949.6112 C 71.684195,948.76266 72.063511,947.67126 72.751294,947.18586 L 74.00181,946.30332 75.445971,948.34962 76.890133,950.39592 78.936431,948.95176 80.982729,947.50759 83.871052,951.60019 z M 22.062065,987.09043 C 24.72281,986.08254 26.192533,985.85118 25.328118,986.57629 L 23.756453,987.89467 24.528413,993.48088 25.300374,999.06708 21.92491,1001.4493 18.549446,1003.8315 16.401831,1000.7489 C 15.220643,999.05349 13.634143,995.98271 12.876277,993.92495 L 11.49834,990.18358 14.361344,989.55327 C 15.935997,989.2066 19.401321,988.09832 22.062065,987.09043 z M 43.073179,1021.6148 49.616467,1024.498 47.539413,1026.7164 C 46.397034,1027.9364 43.905558,1029.6607 42.002798,1030.5481 L 38.543235,1032.1616 36.179766,1028.8127 33.816298,1025.4638 34.43755,1021.8625 C 34.779237,1019.8818 35.389797,1018.3671 35.794347,1018.4964 36.198897,1018.6257 39.474371,1020.029 43.073179,1021.6148 z M 34.299788,1029.5019 36.706724,1032.9124 34.815173,1031.6927 C 33.774821,1031.0219 32.691699,1029.4872 32.408237,1028.2822 L 31.892852,1026.0914 34.299788,1029.5019 z M 14.081524,1000.8537 16.48846,1004.2642 14.596909,1003.0446 C 13.556557,1002.3738 12.473435,1000.839 12.189973,999.63407 L 11.674587,997.44321 14.081524,1000.8537 z"
             style="fill:#060606" />
        </g>
      </g>
    </g>
  </g>
  <g
     inkscape:groupmode="layer"
     id="layer4"
     inkscape:label="top"
     style="display:inline" />
</svg>
