<?xml version="1.0" encoding="UTF-8" standalone="no"?>
<!-- Created with Inkscape (http://www.inkscape.org/) -->

<svg
   xmlns:dc="http://purl.org/dc/elements/1.1/"
   xmlns:cc="http://creativecommons.org/ns#"
   xmlns:rdf="http://www.w3.org/1999/02/22-rdf-syntax-ns#"
   xmlns:svg="http://www.w3.org/2000/svg"
   xmlns="http://www.w3.org/2000/svg"
   xmlns:xlink="http://www.w3.org/1999/xlink"
   xmlns:sodipodi="http://sodipodi.sourceforge.net/DTD/sodipodi-0.dtd"
   xmlns:inkscape="http://www.inkscape.org/namespaces/inkscape"
   width="1500"
   height="1500"
   id="svg2"
   version="1.1"
   inkscape:version="0.48.1 r9760"
   sodipodi:docname="YerLethalMetal.svg">
  <defs
     id="defs4" />
  <sodipodi:namedview
     id="base"
     pagecolor="#ffffff"
     bordercolor="#666666"
     borderopacity="1.0"
     inkscape:pageopacity="0.0"
     inkscape:pageshadow="2"
     inkscape:zoom="1.4"
     inkscape:cx="341.47165"
     inkscape:cy="1018.296"
     inkscape:document-units="px"
     inkscape:current-layer="svg2"
     showgrid="false"
     inkscape:window-width="1228"
     inkscape:window-height="756"
     inkscape:window-x="52"
     inkscape:window-y="0"
     inkscape:window-maximized="0" />
  <metadata
     id="metadata7">
    <rdf:RDF>
      <cc:Work
         rdf:about="">
        <dc:format>image/svg+xml</dc:format>
        <dc:type
           rdf:resource="http://purl.org/dc/dcmitype/StillImage" />
        <dc:title></dc:title>
      </cc:Work>
    </rdf:RDF>
  </metadata>
  <image
     y="0"
     x="0"
     id="map"
     xlink:href="file:///Users/seb/dev/FinalFighter-mac/FinalFighter-mac/YerLethalMetal.png"
     height="1500"
     width="1500"
     style="opacity:0.65" />
  <path
     style="fill:none;stroke:#000000;stroke-width:1px;stroke-linecap:butt;stroke-linejoin:miter;stroke-opacity:1"
     d="M 28.571429,1472.8571 1481.4286,1475.7143 1482.1429,1356.4286 825,1353.5714 825.71429,1126.4286 970.71429,986.42857 1118.5714,985 1123.5714,985.71429 1124.2857,911.42857 1148.5714,911.42857 1148.5714,1021.4286 985,1021.4286 926.42857,1077.8571 955,1085.7143 976.42857,1100.7143 987.85714,1125 997.85714,1149.2857 997.85714,1163.5714 1008.5714,1182.1429 1030.7143,1187.1429 1061.4286,1195.7143 1081.4286,1210.7143 1095,1234.2857 1108.5714,1256.4286 1113.5714,1277.1429 1114.2857,1307.1429 1320.7143,1305 1327.1429,1290 1317.1429,1260 1284.2857,1245.7143 1282.1429,1235.7143 1282.8571,1223.5714 1292.8571,1213.5714 1306.4286,1203.5714 1332.1429,1191.4286 1330,1170.7143 1333.5714,1148.5714 1348.5714,1131.4286 1367.8571,1115 1367.8571,1085.7143 1364.2857,1050.7143 1377.8571,1029.2857 1386.4286,1027.8571 1398.5714,1035.7143 1405.7143,1074.2857 1415.7143,1104.2857 1442.1429,1110 1481.4286,1112.8571 1480,941.42857 1249.2857,937.85714 1247.8571,904.28571 1490.7143,900 1490,16.42857 29.285714,17.142856 27.857143,712.14286 147.85714,710.71428 143.57143,300 232.14286,300 233.57143,335.71428 181.42857,335 185.71429,715.71428 324.28571,715.71428 352.85714,627.14286 380.71429,551.42857 410.71429,495 432.85714,465.71428 455,443.57143 483.57143,423.57143 643.57143,352.85714 642.85714,180 151.42857,180.71428 151.42857,157.14286 683.57143,156.42857 681.42857,225.71428 679.28572,319.28571 675.71429,378.57143 622.85714,404.28571 555.71429,430 517.14286,445 490,465.71428 455.71429,505 425.71429,553.57143 409.28571,584.28571 392.85714,635 384.28571,697.85714 383.57143,752.85714 13.571429,755 31.428571,757.85714 z"
     id="path3172"
     inkscape:connector-curvature="0" />
  <path
     style="fill:none;stroke:#000000;stroke-width:1px;stroke-linecap:butt;stroke-linejoin:miter;stroke-opacity:1"
     d="M 157.14286,937.14286 177.85714,932.85714 179.28571,918.57143 187.14286,910.71429 195,913.57143 198.57143,931.42857 220.71429,936.42857 220.71429,955 214.28571,960.71429 169.28571,961.42857 157.85714,955 z"
     id="path3174"
     inkscape:connector-curvature="0" />
  <path
     style="fill:none;stroke:#000000;stroke-width:1px;stroke-linecap:butt;stroke-linejoin:miter;stroke-opacity:1"
     d="M 237.14286,1200 260.71429,1151.4286 280.71429,1195.7143 292.85714,1197.1429 298.57143,1191.4286 295.71429,1179.2857 301.42857,1167.1429 293.57143,1152.8571 300.71429,1140.7143 300.71429,1127.1429 287.85714,1111.4286 270.71429,1097.8571 275.71429,1083.5714 269.28571,1072.8571 252.14286,1072.1429 243.57143,1081.4286 242.85714,1096.4286 242.85714,1107.1429 227.85714,1120 221.42857,1131.4286 217.85714,1145 223.57143,1157.1429 230,1163.5714 229.28571,1180 227.85714,1190.7143 z"
     id="path3176"
     inkscape:connector-curvature="0" />
  <path
     style="fill:none;stroke:#000000;stroke-width:1px;stroke-linecap:butt;stroke-linejoin:miter;stroke-opacity:1"
     d="M 1220.7143,1191.4286 1239.2857,1151.4286 1260,1193.5714 1267.1429,1195 1270,1185 1260.7143,1159.2857 1269.2857,1148.5714 1277.8571,1140.7143 1275.7143,1125.7143 1266.4286,1111.4286 1255.7143,1099.2857 1248.5714,1078.5714 1238.5714,1075 1226.4286,1080.7143 1223.5714,1096.4286 1223.5714,1107.8571 1206.4286,1118.5714 1200,1136.4286 1201.4286,1151.4286 1203.5714,1165.7143 1202.8571,1181.4286 1208.5714,1188.5714 z"
     id="path3180"
     inkscape:connector-curvature="0" />
  <path
     style="fill:none;stroke:#000000;stroke-width:1px;stroke-linecap:butt;stroke-linejoin:miter;stroke-opacity:1"
     d="M 1116.4286,1093.5714 1132.1429,1087.8571 1149.2857,1077.8571 1155.7143,1079.2857 1165,1086.4286 1170.7143,1101.4286 1170.7143,1110.7143 1170.7143,1131.4286 1165,1137.8571 1150.7143,1145 1135,1141.4286 1128.5714,1128.5714 1121.4286,1116.4286 1115,1104.2857 z"
     id="path3184"
     inkscape:connector-curvature="0" />
  <path
     style="fill:none;stroke:#000000;stroke-width:1px;stroke-linecap:butt;stroke-linejoin:miter;stroke-opacity:1"
     d="M 643.57143,1350 674.28571,1350 678.57143,1126.4286 527.85714,984.28571 380,982.85714 377.85714,909.28571 344.28571,907.14286 349.28571,1022.8571 515.71429,1022.1429 645.71429,1146.4286 z"
     id="path3186"
     inkscape:connector-curvature="0" />
  <path
     style="fill:none;stroke:#000000;stroke-width:1px;stroke-linecap:butt;stroke-linejoin:miter;stroke-opacity:1"
     d="M 730.71429,994.28571 730,1028.5714 736.42857,1044.2857 747.14286,1053.5714 757.85714,1055.7143 771.42857,1050.7143 780,1042.1429 782.85714,1022.8571 784.28572,992.14286 796.42857,976.42857 804.28572,960.71429 804.28572,947.14286 797.85714,928.57143 782.85714,911.42857 762.14286,903.57143 752.85714,903.57143 740,907.85714 730,913.57143 720,929.28571 715,945.71429 715,961.42857 720.71429,975 z"
     id="path3188"
     inkscape:connector-curvature="0" />
  <path
     style="fill:none;stroke:#000000;stroke-width:1px;stroke-linecap:butt;stroke-linejoin:miter;stroke-opacity:1"
     d="M 1123.5714,746.42857 1157.1429,747.14286 1156.4286,647.14286 1146.4286,611.42857 1126.4286,535 1351.4286,535.71428 1355,157.85714 1272.1429,154.28571 1272.1429,178.57143 1329.2857,179.28571 1325,499.28571 1117.1429,501.42857 1082.8571,460.71428 1060.7143,436.42857 1031.4286,412.14286 1011.4286,397.85714 986.42857,387.14286 956.42857,379.28571 927.14286,370.71428 890.71429,362.14286 856.42857,353.57143 857.14286,182.85714 1122.1429,183.57143 1121.4286,152.85714 823.57143,154.28571 822.85714,383.57143 900.71429,414.28571 958.57143,438.57143 1017.8571,471.42857 1035,487.85714 1064.2857,522.85714 1082.8571,562.14286 1100.7143,604.28571 1109.2857,637.85714 1120,672.14286 1123.5714,702.85714 z"
     id="path3190"
     inkscape:connector-curvature="0" />
  <path
     style="fill:none;stroke:#000000;stroke-width:1px;stroke-linecap:butt;stroke-linejoin:miter;stroke-opacity:1"
     d="M 714.28572,695 712.14286,714.28571 713.57143,736.42857 728.57143,754.28571 741.42857,762.14286 754.28572,763.57143 763.57143,761.42857 777.14286,755 787.85714,748.57143 799.28572,742.85714 807.85714,731.42857 810,717.14286 806.42857,702.14286 797.85714,687.14286 784.28572,676.42857 761.42857,675 739.28572,678.57143 725.71429,685.71428 z"
     id="path3192"
     inkscape:connector-curvature="0" />
</svg>
